<svg width="24.000000" height="24.000000" viewBox="0 0 24 24" fill="none" xmlns="http://www.w3.org/2000/svg" xmlns:xlink="http://www.w3.org/1999/xlink">
	<desc>
			Created with Pixso.
	</desc>
	<defs>
		<clipPath id="clip3_3406">
			<rect id="arrow-up-right" rx="0.000000" width="23.500000" height="23.500000" transform="translate(0.250000 0.250000)" fill="white" fill-opacity="0"/>
		</clipPath>
	</defs>
	<g clip-path="url(#clip3_3406)">
		<path id="Vector (Stroke)" d="M6.79 7.12C6.79 6.5 7.29 6 7.92 6L16.93 6C17.55 6 18.06 6.5 18.06 7.12L18.06 16.14C18.06 16.76 17.55 17.26 16.93 17.26C16.31 17.26 15.81 16.76 15.81 16.14L15.81 9.84L7.92 17.73C7.48 18.17 6.76 18.17 6.32 17.73C5.89 17.29 5.89 16.58 6.32 16.14L14.22 8.25L7.92 8.25C7.29 8.25 6.79 7.74 6.79 7.12Z" fill="#2F2F2F" fill-opacity="1.000000" fill-rule="evenodd"/>
	</g>
</svg>
