<svg width="32.000000" height="32.000000" viewBox="0 0 32 32" fill="none" xmlns="http://www.w3.org/2000/svg" xmlns:xlink="http://www.w3.org/1999/xlink">
	<desc>
			Created with Pixso.
	</desc>
	<defs>
		<clipPath id="clip3_2477">
			<rect id="Asset 1 1" rx="0.000000" width="25.394018" height="24.900661" transform="translate(29.202053 3.302640) rotate(90.000000)" fill="white" fill-opacity="0"/>
		</clipPath>
	</defs>
	<mask id="mask3_2477" mask-type="alpha" maskUnits="userSpaceOnUse" x="3.170898" y="2.925781" width="25.654297" height="26.147705">
		<rect id="Asset 1 1" rx="0.000000" width="25.394018" height="24.900661" transform="translate(29.202053 3.302640) rotate(90.000000)" fill="#FFFFFF" fill-opacity="0"/>
		<g clip-path="url(#clip3_2477)">
			<path id="Vector" d="M27.98 5.13C27.64 5.53 27.59 5.65 26.71 7.49C26.35 8.23 26 8.97 25.57 9.67C25.08 10.47 24.51 11.22 24.13 12.08C23.34 13.87 23.62 15.86 24.22 17.66C24.62 18.87 24.79 18.72 25.33 20.41C25.71 21.59 25.79 22.21 26.32 23.46C26.46 23.79 26.69 24.21 27.13 25.06C27.79 26.32 27.99 26.59 28.34 26.7C28.5 26.75 28.66 26.77 28.82 26.77L28.82 26.41C28.66 26.32 28.52 26.2 28.4 26.06C28.09 25.69 27.91 25.24 27.72 24.79L26.39 21.71C24.79 18.01 24.59 17.92 24.37 16.41C24.17 15.04 24.3 14.09 24.35 13.74C24.5 12.87 24.77 12.04 25.15 11.26C25.6 10.34 25.78 10.41 26.45 9.15C26.8 8.48 27.12 7.79 27.45 7.12C27.78 6.45 28.13 5.79 28.56 5.18C28.65 5.05 28.74 4.93 28.82 4.82L28.82 4.3C28.51 4.55 28.23 4.82 27.98 5.13Z" fill="#575756" fill-opacity="1.000000" fill-rule="nonzero"/>
			<path id="Vector" d="M28.16 7.44C27.96 7.98 27.6 8.91 27.17 9.69C26.7 10.53 26.57 10.44 26.15 11.18C25.57 12.18 25.4 13.09 25.3 13.64C25.08 14.87 25.11 16.14 25.39 17.36C25.61 18.34 25.97 19.29 26.46 20.17C26.73 20.66 27.13 21.18 27.94 22.22C28.2 22.56 28.49 22.86 28.82 23.13L28.82 22.24C28.64 22.09 28.46 21.94 28.3 21.77C27.42 20.91 27 20.03 26.64 19.26C26.26 18.46 25.92 17.75 25.76 16.7C25.5 15.08 25.82 13.74 25.97 13.14C26.08 12.68 26.23 12.22 26.41 11.77C26.89 10.62 27.23 10.47 27.9 9.16C28.05 8.85 28.27 8.32 28.72 7.25L28.82 6.99L28.82 6.06C28.76 6.16 28.7 6.26 28.64 6.36C28.45 6.7 28.29 7.06 28.16 7.44Z" fill="#575756" fill-opacity="1.000000" fill-rule="nonzero"/>
			<path id="Vector" d="M26.82 16.74C26.92 17.72 27.2 18.69 27.71 19.53C27.92 19.88 28.36 20.41 28.82 20.59L28.82 20.27C28.22 19.93 27.83 19.06 27.62 18.47C27 16.75 27.12 14.84 27.52 13.09C27.71 12.23 27.95 11.38 28.32 10.58C28.46 10.27 28.63 9.97 28.82 9.69L28.82 8.94C28.34 9.47 28 10.17 27.75 10.81C27.04 12.65 26.61 14.76 26.82 16.74Z" fill="#575756" fill-opacity="1.000000" fill-rule="nonzero"/>
			<path id="Vector" d="M28.3 13.34C28.1 13.89 28.01 14.49 28.06 15.08C28.1 15.77 28.25 16.44 28.42 17.11C28.5 17.39 28.61 17.71 28.82 17.91L28.82 17.36C28.74 17.1 28.7 16.79 28.66 16.6C28.55 16.04 28.45 15.47 28.44 14.89C28.43 14.4 28.52 13.91 28.69 13.45C28.73 13.36 28.77 13.27 28.82 13.18L28.82 12.43C28.58 12.68 28.41 13.04 28.3 13.34Z" fill="#575756" fill-opacity="1.000000" fill-rule="nonzero"/>
			<path id="Vector" d="M24.36 7.36C24.13 8.3 23.93 8.45 23.23 10.19C22.67 11.58 22.34 12.42 22.16 13.2C21.74 15.05 22.2 16.58 22.93 18.88C23.96 22.12 24.08 21.78 25.25 24.38C25.93 25.89 26.53 27.44 26.86 29.07L27.11 29.07C26.88 27.22 26.17 25.45 25.44 23.75C23.87 20.15 21.82 16.23 23.12 12.21C23.42 11.28 23.83 10.38 24.16 9.46C24.5 8.52 24.73 7.54 24.86 6.55C24.98 5.54 25.02 4.53 25 3.52L24.98 2.92L24.58 2.92C24.6 3.26 24.62 3.6 24.62 3.94C24.64 5.42 24.56 6.6 24.36 7.36Z" fill="#575756" fill-opacity="1.000000" fill-rule="nonzero"/>
			<path id="Vector" d="M22.65 7.45C22.37 8.45 21.93 9.34 21.44 10.24C20.94 11.16 20.54 12.1 20.42 13.15C20.19 15.12 20.71 17.18 21.33 19.04C22.5 22.46 24.39 25.6 25.44 29.07L25.68 29.07C25.23 27.21 24.51 25.46 23.74 23.7C22.96 21.9 22.16 20.09 21.59 18.2C21.3 17.26 21.09 16.3 20.97 15.33C20.83 14.26 20.82 13.15 21.14 12.11C21.44 11.11 22.02 10.22 22.42 9.27C22.81 8.34 23.1 7.37 23.27 6.38C23.45 5.4 23.51 4.41 23.46 3.42C23.45 3.25 23.43 3.09 23.41 2.92L23.03 2.92C23.07 3.29 23.1 3.65 23.1 4.02C23.13 5.18 22.97 6.34 22.65 7.45Z" fill="#575756" fill-opacity="1.000000" fill-rule="nonzero"/>
			<path id="Vector" d="M25.67 4.51C25.61 4.85 25.63 5.2 25.59 5.54C25.55 5.82 25.51 6.13 25.68 6.35C25.73 6.41 25.79 6.45 25.86 6.48C26.27 6.62 26.87 5.81 27.04 5.54C27.39 5 27.6 4.37 27.72 3.73C27.78 3.46 27.81 3.19 27.84 2.92L27.52 2.92C27.49 3.1 27.44 3.36 27.37 3.71C27.15 4.62 26.46 5.45 26.21 5.36C26.01 5.28 26.21 4.64 26.16 3.44C26.15 3.26 26.14 3.08 26.12 2.92L25.73 2.92C25.78 3.7 25.74 4.19 25.67 4.51Z" fill="#575756" fill-opacity="1.000000" fill-rule="nonzero"/>
			<path id="Vector" d="M23.23 25.62C22.79 24.02 22.25 22.43 21.48 20.96C21.3 20.62 21.16 20.38 20.87 19.91C20.31 19 20.02 18.54 19.77 18.56C19.38 18.59 19.18 19.54 19.08 19.99C18.78 21.36 18.98 22.21 18.99 23.55C19 24.34 18.92 24.99 18.75 26.29C18.64 27.2 18.69 28.14 18.65 29.07L19.1 29.07C19.3 27.53 19.48 25.59 19.48 25.57C19.49 22.89 19.51 20.23 20.1 20.11C20.45 20.04 20.89 20.9 21.45 21.99C21.67 22.42 22.12 23.14 23.02 26.34C23.23 27.08 23.42 27.82 23.61 28.56C23.66 28.73 23.7 28.9 23.73 29.07L24.09 29.07C24.04 28.81 23.98 28.57 23.92 28.34C23.7 27.43 23.48 26.52 23.23 25.62Z" fill="#575756" fill-opacity="1.000000" fill-rule="nonzero"/>
			<path id="Vector" d="M22.05 25.97C21.91 25.51 21.72 25.07 21.49 24.64C21.12 23.91 20.85 23.39 20.64 23.42C20.25 23.5 20.3 25.63 20.31 26.12C20.33 26.93 20.44 28.07 20.56 29.07L21.02 29.07C20.95 28.56 20.82 27.56 20.77 26.67C20.73 26.03 20.64 24.63 20.88 24.58C21.06 24.54 21.34 25.25 21.43 25.46C21.87 26.58 22.18 27.93 22.39 29.07L22.74 29.07C22.67 28.6 22.59 28.13 22.48 27.66C22.36 27.09 22.21 26.53 22.05 25.97Z" fill="#575756" fill-opacity="1.000000" fill-rule="nonzero"/>
			<path id="Vector" d="M21.55 5.43C21.44 6.49 21.03 7.21 20.73 7.81C20.63 7.99 19.06 10.8 18.99 13.82C18.96 14.96 19.12 16.11 18.89 17.24C18.69 18.27 18.23 19.22 18.01 20.24C17.39 23.08 18.08 26.27 17.31 29.07L17.59 29.07C17.92 27.88 18.01 26.59 18.05 25.35C18.11 23.43 18.06 21.44 18.64 19.58C18.97 18.51 19.39 17.51 19.45 16.37C19.53 14.7 19.45 14.13 19.49 12.95C19.63 9.46 21.84 8.71 22.11 5.48C22.18 4.62 22.11 3.75 21.89 2.92L21.27 2.92C21.31 3.04 21.34 3.16 21.37 3.29C21.55 3.99 21.61 4.71 21.55 5.43Z" fill="#575756" fill-opacity="1.000000" fill-rule="nonzero"/>
			<path id="Vector" d="M16.78 26.78C16.83 26.02 16.75 26.09 16.77 25.08C16.8 23.91 16.93 23.29 16.75 22.25C16.64 21.55 16.51 21.45 16.42 21.42C16.03 21.29 15.3 22.53 15.16 22.77C14.21 24.4 13.99 26.09 13.89 26.66C13.78 27.31 13.73 27.95 13.67 28.6C13.66 28.76 13.64 28.91 13.62 29.07L13.88 29.07C14 28.55 14.14 27.89 14.31 27.06C14.49 26.2 14.75 25.04 15.38 23.71C15.9 22.6 16.1 22.6 16.15 22.61C16.32 22.65 16.38 23.08 16.4 24.19C16.45 26.19 16.39 27.17 16.31 27.77C16.25 28.21 16.15 28.65 16.01 29.07L16.32 29.07C16.36 28.98 16.39 28.89 16.42 28.79C16.63 28.14 16.75 27.46 16.78 26.78Z" fill="#575756" fill-opacity="1.000000" fill-rule="nonzero"/>
			<path id="Vector" d="M18.67 7.96C18.36 9.03 17.98 10.1 17.84 11.22C17.71 12.39 18.01 13.51 18.06 14.68C18.15 16.54 17.2 18.15 16.19 19.62C15.13 21.16 14.01 22.64 13.45 24.46C12.99 25.98 12.73 27.87 11.64 29.07L11.95 29.07C13.09 27.77 13.38 25.72 13.96 24.12C14.62 22.32 15.9 20.84 16.94 19.26C17.43 18.5 17.88 17.72 18.17 16.86C18.5 15.9 18.55 14.92 18.42 13.92C18.35 13.33 18.25 12.74 18.23 12.15C18.22 11.55 18.29 10.95 18.43 10.37C18.66 9.36 18.87 8.72 19.06 8.1C19.38 7.11 19.76 5.93 19.84 4.67C19.87 4.09 19.84 3.5 19.77 2.92L19.01 2.92C19.09 3.36 19.14 3.8 19.16 4.24C19.22 5.51 19.02 6.74 18.67 7.96Z" fill="#575756" fill-opacity="1.000000" fill-rule="nonzero"/>
			<path id="Vector" d="M10.09 9.25C10 11 9.41 12.3 8.85 13.56C7.82 15.86 7.24 15.87 6.98 17.29C6.71 18.81 7.34 18.99 7.4 21.25C7.46 23.51 6.88 25.28 6.52 26.35C6.2 27.29 5.8 28.2 5.33 29.07L5.85 29.07C6.13 28.59 6.39 28.09 6.61 27.58C6.88 26.96 7.61 25.18 7.85 22.04C8.11 18.73 7.43 19.01 7.88 17.32C8.35 15.53 9.08 15.33 10.14 12.34C10.7 10.77 10.78 10.05 10.81 9.65C10.88 8.46 10.66 7.56 10.3 6.15C10.01 5.05 9.66 3.97 9.23 2.92L8.87 2.92C9.17 3.77 9.42 4.63 9.61 5.51C9.93 6.92 10.16 7.95 10.09 9.25Z" fill="#575756" fill-opacity="1.000000" fill-rule="nonzero"/>
			<path id="Vector" d="M8.95 7.84C9.05 8.64 9.04 9.44 8.84 10.21C8.66 10.89 8.36 11.54 8.03 12.15C7.38 13.38 6.58 14.54 6.14 15.88C5.75 17.08 5.75 18.14 5.73 19.87C5.72 21 5.78 21.78 5.8 22.1C5.89 23.55 5.58 25.77 3.82 29.07L4.25 29.07C4.98 27.83 5.54 26.49 5.89 25.09C7.05 20.43 5.05 18.41 6.78 15.41C7.51 14.19 8.18 12.93 8.78 11.64C9.08 11 9.29 10.33 9.4 9.63C9.51 8.81 9.43 7.98 9.28 7.17C9.11 6.3 8.87 5.45 8.64 4.6C8.46 3.93 8.38 3.37 8.3 2.92L7.57 2.92C7.75 3.44 8.06 4.15 8.32 5.12C8.56 6.02 8.82 6.92 8.95 7.84Z" fill="#575756" fill-opacity="1.000000" fill-rule="nonzero"/>
			<path id="Vector" d="M7.56 8.72C7.51 9 7.41 9.57 6.41 11.75C5.85 12.96 5.86 12.82 5.6 13.43C4.58 15.8 4.66 17.2 4.15 17.28C3.82 17.33 3.45 16.79 3.17 16.26L3.17 17.76C3.84 18.65 4.53 19.16 4.83 19.02C5.19 18.86 4.92 17.88 5.4 15.68C5.68 14.37 5.98 14 6.58 12.62C6.96 11.77 6.89 11.77 7.23 11.02C7.48 10.48 7.75 9.95 8.06 9.43C8.48 8.67 8.5 6.97 6.82 2.92L6.24 2.92C6.55 3.6 7.19 5.09 7.45 6.4C7.56 6.95 7.7 7.72 7.56 8.72Z" fill="#575756" fill-opacity="1.000000" fill-rule="nonzero"/>
			<path id="Vector" d="M6.13 8.67C6.08 8.9 6 9.13 5.91 9.34C5.86 9.48 5.79 9.62 5.72 9.75C5.56 10.04 5.37 10.32 5.16 10.57C4.47 11.41 4.2 13.14 3.88 13.11C3.81 13.1 3.67 13.01 3.5 11.83C3.38 10.98 3.33 10.13 3.34 9.27C3.34 8.86 3.28 8.45 3.17 8.06L3.17 13.98C3.35 14.57 3.65 15.41 3.96 15.39C4.41 15.36 4.23 13.49 5.35 11.16C5.93 9.95 6.57 9.73 6.76 8.61C6.85 8.06 6.87 7.48 6.64 6.37C6.39 5.18 6 4.02 5.5 2.92L4.85 2.92C5.22 3.72 5.75 5 6.06 6.36C6.06 6.36 6.36 7.71 6.13 8.67Z" fill="#575756" fill-opacity="1.000000" fill-rule="nonzero"/>
			<path id="Vector" d="M15.79 24.93C15.74 24.72 15.68 24.62 15.62 24.61C15.28 24.58 14.81 26.86 14.43 29.07L15.49 29.07C15.87 27.86 16.13 26.12 15.79 24.93Z" fill="#575756" fill-opacity="1.000000" fill-rule="nonzero"/>
			<path id="Vector" d="M26.85 3.93C26.95 3.91 27.05 3.71 27.11 2.92L26.41 2.92C26.45 3.29 26.45 3.44 26.55 3.62C26.58 3.68 26.72 3.94 26.85 3.93Z" fill="#575756" fill-opacity="1.000000" fill-rule="nonzero"/>
			<path id="Vector" d="M11.83 11.25C11.62 12.27 11.08 13.15 10.56 14.02C10.03 14.9 9.59 15.83 9.27 16.8C8.8 18.23 8.56 19.77 8.26 22.91C8.07 24.94 8.07 25.86 7.55 27.3C7.33 27.91 7.06 28.5 6.75 29.07L7.27 29.07C7.73 28.38 8.08 27.63 8.33 26.84C8.63 25.85 8.63 25.19 8.71 23.97C8.85 21.9 8.97 19.81 9.51 17.8C9.76 16.8 10.14 15.83 10.63 14.92C11.13 14.01 11.73 13.14 12.09 12.16C12.71 10.44 12.28 8.64 11.73 6.96C11.42 6 11.06 5.06 10.8 4.08C10.7 3.7 10.62 3.31 10.57 2.92L10.2 2.92C10.32 4.02 10.69 5.11 11.03 6.12C11.57 7.75 12.19 9.51 11.83 11.25Z" fill="#575756" fill-opacity="1.000000" fill-rule="nonzero"/>
			<path id="Vector" d="M17.53 7.17C17.27 8.18 16.76 9.1 16.51 10.12C16.27 11.12 16.21 12.15 16.17 13.18C16.1 15.03 16.06 17.04 15.01 18.65C14.5 19.44 13.69 19.97 13.28 20.83C12.87 21.69 12.74 22.65 12.46 23.55C12.11 24.66 11.67 25.73 11.15 26.77C10.76 27.55 10.33 28.3 9.92 29.07L10.4 29.07C10.73 28.47 11.04 27.87 11.35 27.26C11.82 26.34 12.23 25.4 12.58 24.43C12.92 23.5 13.1 22.53 13.42 21.6C13.56 21.14 13.8 20.71 14.11 20.33C14.44 19.96 14.82 19.63 15.13 19.24C16.29 17.77 16.51 15.83 16.61 14.01C16.66 12.95 16.69 11.89 16.86 10.84C17.04 9.8 17.48 8.83 17.79 7.82C18.27 6.24 18.21 4.56 17.95 2.92L17.63 2.92C17.82 4.34 17.91 5.76 17.53 7.17Z" fill="#575756" fill-opacity="1.000000" fill-rule="nonzero"/>
			<path id="Vector" d="M12.21 6.48C12.48 7.23 12.84 8.25 12.99 9.44C13.18 10.96 12.81 11.1 12.53 14.03C12.53 14.03 12.42 15.15 11.92 15.86C11.66 16.24 11.4 16.41 11.13 16.6C11.13 16.6 10.95 16.73 10.59 17.03C9.91 17.59 9.74 18.9 9.64 19.61C9.59 19.97 9.56 20.34 9.55 20.7C9.54 21.31 9.45 24.19 8.83 26.42C8.58 27.34 8.21 28.23 7.74 29.07L7.96 29.07C8.41 28.36 8.78 27.59 9.04 26.79C9.62 25.01 9.92 22.36 9.91 20.18C9.91 20.18 9.9 17.92 10.78 17.22C11.23 16.86 11.27 16.82 11.27 16.82C11.55 16.63 11.84 16.43 12.14 16.01C12.65 15.29 12.74 14.55 12.79 14.03C13.03 12.03 13.26 11.13 13.41 10.54C13.56 9.96 13.63 9.68 13.55 8.98C13.45 8.13 13.24 7.69 12.95 7.09C12.54 6.25 12.2 5.37 11.95 4.46C11.79 3.95 11.66 3.44 11.54 2.92L11.13 2.92C11.21 3.52 11.34 4.11 11.52 4.68C11.74 5.38 11.91 5.64 12.21 6.48Z" fill="#575756" fill-opacity="1.000000" fill-rule="nonzero"/>
			<path id="Vector" d="M16.12 7.06C16.04 7.3 15.96 7.5 15.8 8.01C15.39 9.26 15.1 10.56 14.93 11.87C14.5 15.09 15.09 15.57 14.38 16.58C14.31 16.67 14.31 16.66 12.99 18.39C12.58 18.91 12.38 19.18 12.36 19.21C11.7 20.27 11.67 21.22 11.47 22.5C11.47 22.5 11.29 23.62 10.79 25.37C10.52 26.33 10.04 27.61 9.1 29.07L9.37 29.07C10.07 27.94 10.64 26.72 11.04 25.45C11.68 23.41 11.88 22.4 11.88 22.4C12.18 20.95 12.17 20.25 12.74 19.4C13.35 18.51 13.82 18.05 13.82 18.05C14.04 17.84 14.25 17.65 14.52 17.31C15.29 16.3 15.28 15.41 15.26 14.18C15.25 13.16 15.24 11.88 15.66 10.06C15.79 9.46 15.97 8.88 16.2 8.32C16.42 7.79 16.57 7.23 16.64 6.65C16.79 5.41 16.75 4.15 16.49 2.92L16.22 2.92C16.61 4.85 16.43 6.17 16.12 7.06Z" fill="#575756" fill-opacity="1.000000" fill-rule="nonzero"/>
			<path id="Vector" d="M15.49 4.27C15.43 4.86 15.34 4.91 14.75 6.91C13.99 9.47 13.82 10.48 13.76 10.81C13.61 11.71 13.54 12.17 13.52 12.73C13.49 14.17 13.68 15.03 13.19 16.09C13.13 16.21 13.05 16.32 12.96 16.41C12.4 16.99 11.45 17.3 10.99 18.48C10.92 18.64 10.87 18.8 10.84 18.97C10.45 20.53 10.42 22.01 10.39 22.65C10.29 24.31 9.84 25.55 9.36 26.87C9.08 27.62 8.76 28.36 8.39 29.07L8.71 29.07C8.78 28.92 8.85 28.76 8.92 28.59C10.16 25.68 10.93 23.86 10.87 21.77C10.85 21.25 10.76 19.99 11.32 18.73C11.39 18.53 11.49 18.35 11.6 18.18C12.25 17.24 13.05 17.37 13.5 16.56C13.65 16.29 13.7 16.04 13.78 15.57C13.84 15.19 13.87 14.81 13.86 14.42C13.86 13.82 13.9 13.23 13.91 12.64C13.87 12.84 14.09 9.78 15.4 6.19C15.72 5.31 15.85 4.18 15.7 2.92L15.47 2.92C15.53 3.37 15.53 3.82 15.49 4.27Z" fill="#575756" fill-opacity="1.000000" fill-rule="nonzero"/>
			<path id="Vector" d="M12.37 4.2C12.51 4.63 12.56 4.9 12.75 5.36C12.75 5.38 12.82 5.55 12.9 5.72C13.34 6.63 13.64 7.23 13.91 7.21C14.37 7.19 14.71 5.47 14.74 4.27C14.75 3.82 14.71 3.37 14.64 2.92L14.41 2.92C14.48 3.36 14.51 3.82 14.47 4.26C14.46 4.47 14.37 5.91 13.91 6C13.6 6.05 13.17 5.47 13 5.05C12.92 4.86 12.96 4.87 12.76 4.28C12.65 3.95 12.6 3.84 12.54 3.59C12.48 3.34 12.48 3.23 12.43 3L12.42 2.92L11.96 2.92C11.99 3.06 12.03 3.19 12.06 3.3C12.18 3.7 12.22 3.68 12.37 4.2Z" fill="#575756" fill-opacity="1.000000" fill-rule="nonzero"/>
			<path id="Vector" d="M13.76 5.11C13.97 5.07 13.93 4.09 13.91 3.7C13.9 3.48 13.88 3.22 13.85 2.92L13.05 2.92C13.17 3.71 13.11 4.23 13.46 4.81C13.54 4.93 13.66 5.14 13.76 5.11Z" fill="#575756" fill-opacity="1.000000" fill-rule="nonzero"/>
			<path id="Vector" d="M4.47 20.75C4.37 20.58 4.19 20.33 3.84 19.82C3.6 19.47 3.37 19.16 3.17 18.87L3.17 19.63C3.23 19.73 3.29 19.82 3.35 19.93C3.86 20.81 4.5 21.92 4.56 23.45C4.56 23.51 4.6 25.03 4.04 26.19C3.9 26.47 3.72 26.76 3.48 27.35C3.39 27.6 3.29 27.85 3.17 28.08L3.17 29C4.02 27.78 4.6 26.37 4.85 24.89C5.01 23.88 5.29 22.17 4.47 20.75Z" fill="#575756" fill-opacity="1.000000" fill-rule="nonzero"/>
			<path id="Vector" d="M3.83 22.72C3.71 22.07 3.48 21.45 3.17 20.88L3.17 26.92C3.86 25.64 4.1 24.15 3.83 22.72L3.83 22.72Z" fill="#575756" fill-opacity="1.000000" fill-rule="nonzero"/>
			<path id="Vector" d="M4.05 9.88C4.14 10.19 4.18 10.3 4.26 10.31C4.6 10.37 5.41 8.66 5.31 6.92C5.24 5.77 4.77 4.44 4.26 4.42C4.06 4.41 3.84 4.61 3.74 4.78C3.56 5.1 3.66 5.48 3.7 5.62C4.04 6.98 3.46 7.85 4.05 9.88ZM4.13 5.84C4.06 5.65 4.05 5.45 4.09 5.25C4.1 5.2 4.16 4.91 4.27 4.9C4.49 4.88 4.97 6.1 4.94 7.38C4.91 8.39 4.57 9.36 4.38 9.35C4.24 9.34 4.14 8.74 4.13 8.68C4.11 8.55 4.1 8.41 4.1 8.28C4.11 7.8 4.17 7.6 4.21 7.25C4.24 6.87 4.29 6.37 4.13 5.84Z" fill="#575756" fill-opacity="1.000000" fill-rule="nonzero"/>
		</g>
	</mask>
	<g mask="url(#mask3_2477)">
		<circle id="Ellipse 9" cx="15.952637" cy="15.759399" r="12.831615" fill="#C38C40" fill-opacity="1.000000"/>
	</g>
	<path id="Ellipse 10 (Stroke)" d="M32 16C32 24.83 24.83 32 16 32C7.16 32 0 24.83 0 16C0 7.16 7.16 0 16 0C24.83 0 32 7.16 32 16ZM16 30.35C23.93 30.35 30.35 23.93 30.35 16C30.35 8.06 23.93 1.64 16 1.64C8.06 1.64 1.64 8.06 1.64 16C1.64 23.93 8.06 30.35 16 30.35Z" fill="#3F2C30" fill-opacity="1.000000" fill-rule="evenodd"/>
</svg>
