<svg width="118" height="56" viewBox="0 0 118 56" fill="none" xmlns="http://www.w3.org/2000/svg">
<path d="M9.50098 44L3.16699 18.7106C2.9807 17.9189 2.60811 17.686 1.86294 17.686H0.698602V10.7H6.66C8.9421 10.7 10.3859 11.352 10.805 13.4012L14.4843 30.8197C14.9035 32.8689 14.9035 34.3127 14.9035 34.3127H14.9967C14.9967 34.3127 15.0432 32.8689 15.5555 30.8197L20.632 10.7466H27.292L32.322 30.8197C32.8343 32.8689 32.8809 34.3127 32.8809 34.3127H32.974C32.974 34.3127 32.974 32.8689 33.3932 30.8197L37.0725 13.4012C37.4916 11.352 38.8888 10.7 41.2175 10.7H47.1789V17.686H46.0146C45.2694 17.686 44.8968 17.9189 44.7105 18.7106L38.3765 44H28.829L24.6374 28.491C24.0319 26.3487 23.9853 24.9515 23.9853 24.9515H23.8922C23.8922 24.9515 23.8456 26.3487 23.2402 28.491L19.0485 44H9.50098Z" fill="#F2F2F2"/>
<mask id="mask0_45330_2434" style="mask-type:alpha" maskUnits="userSpaceOnUse" x="52" y="11" width="33" height="34">
<g clip-path="url(#clip0_45330_2434)">
<path d="M83.8939 14.5596C83.4759 15.0631 83.4107 15.2191 82.2963 17.5291C81.8499 18.4553 81.4052 19.3857 80.8693 20.2634C80.2565 21.2663 79.5317 22.207 79.056 23.2925C78.0703 25.5471 78.419 28.0403 79.1714 30.3094C79.673 31.8261 79.8886 31.6429 80.5708 33.7638C81.049 35.2489 81.1435 36.0175 81.8165 37.5981C81.992 38.0088 82.2713 38.5414 82.8305 39.6065C83.6599 41.1863 83.9132 41.5211 84.3504 41.6711C84.546 41.7325 84.7504 41.7593 84.9548 41.7503L84.9548 41.3021C84.7564 41.1856 84.5791 41.0351 84.4307 40.8573C84.0294 40.3964 83.8154 39.8246 83.5754 39.2682L81.9034 35.4006C79.887 30.7406 79.6395 30.629 79.3611 28.7297C79.1103 27.0136 79.2692 25.8147 79.3386 25.3733C79.5205 24.2902 79.8586 23.2405 80.3418 22.2581C80.9027 21.1061 81.1293 21.1973 81.9695 19.6124C82.4142 18.7731 82.8105 17.9082 83.231 17.0562C83.6457 16.2143 84.0829 15.3878 84.6204 14.6235C84.7333 14.4624 84.8462 14.3142 84.9548 14.1753L84.9548 13.52C84.5665 13.8277 84.2109 14.1762 83.8939 14.5596Z" fill="#575756"/>
<path d="M84.1272 17.457C83.868 18.1447 83.4208 19.3154 82.8799 20.2928C82.2947 21.3502 82.1275 21.2301 81.5916 22.1597C80.8726 23.4131 80.6502 24.5651 80.524 25.2587C80.2478 26.8054 80.29 28.3937 80.6477 29.923C80.9197 31.1645 81.3705 32.3581 81.9853 33.4651C82.3256 34.0769 82.8339 34.7287 83.8513 36.0324C84.1715 36.4585 84.5421 36.8426 84.9548 37.1759L84.9548 36.0597C84.7248 35.8755 84.5044 35.6793 84.2944 35.4717C83.1992 34.3896 82.6633 33.2802 82.2111 32.319C81.7387 31.3144 81.3124 30.4155 81.1025 29.1016C80.779 27.0685 81.1811 25.3788 81.3667 24.629C81.5113 24.0416 81.6994 23.4662 81.9293 22.9078C82.5304 21.4593 82.9543 21.2692 83.792 19.623C83.9867 19.2362 84.2643 18.5664 84.8211 17.227L84.9548 16.9015L84.9548 15.7324C84.8779 15.8534 84.8018 15.9778 84.7316 16.1005C84.4918 16.5339 84.2895 16.9878 84.1272 17.457Z" fill="#575756"/>
<path d="M82.4368 29.1537C82.5689 30.3841 82.9125 31.6008 83.5545 32.66C83.8187 33.0971 84.3696 33.7677 84.9548 33.9926L84.9548 33.5794C84.1941 33.1636 83.7109 32.0703 83.4408 31.318C82.665 29.1571 82.8205 26.7653 83.3163 24.5584C83.5579 23.4856 83.8638 22.4111 84.3195 21.4057C84.4995 21.016 84.7121 20.6429 84.9548 20.2903L84.9548 19.353C84.3521 20.0185 83.9257 20.8944 83.613 21.6954C82.7102 24.0054 82.1701 26.6622 82.4368 29.1537Z" fill="#575756"/>
<path d="M84.2996 24.8706C84.0439 25.5698 83.9406 26.3173 83.997 27.0613C84.0471 27.9253 84.2419 28.7731 84.4559 29.6081C84.5487 29.9686 84.6867 30.3691 84.9575 30.6153L84.9575 29.926C84.8472 29.5979 84.8045 29.2136 84.756 28.9742C84.6106 28.2661 84.4818 27.5538 84.4793 26.827C84.467 26.2062 84.5744 25.5889 84.7953 25.0103C84.8427 24.8957 84.8957 24.7837 84.9542 24.6746L84.9542 23.7373C84.6532 24.0534 84.4417 24.5008 84.2996 24.8706Z" fill="#575756"/>
<path d="M79.3534 17.3563C79.0608 18.5424 78.81 18.7316 77.9322 20.9163C77.2291 22.6665 76.8052 23.7214 76.5812 24.7038C76.0528 27.0215 76.6364 28.9421 77.556 31.8417C78.8476 35.9146 78.9989 35.4826 80.4695 38.7495C81.3255 40.6522 82.0687 42.5975 82.4859 44.6417L82.8086 44.6417C82.5118 42.318 81.6256 40.0941 80.7002 37.9639C78.7322 33.4351 76.159 28.5135 77.7942 23.4572C78.1729 22.283 78.6846 21.1608 79.1026 20.0054C79.5271 18.8215 79.8185 17.5923 79.9712 16.3415C80.1212 15.08 80.1799 13.8089 80.1468 12.5386L80.1317 11.7837L79.6301 11.7837C79.6552 12.2097 79.6744 12.6358 79.6786 13.0618C79.6945 14.9194 79.5933 16.4088 79.3534 17.3563Z" fill="#575756"/>
<path d="M77.2047 17.4773C76.8452 18.7256 76.2893 19.8495 75.6748 20.9862C75.0511 22.1424 74.5454 23.3141 74.3949 24.6356C74.1131 27.1143 74.7552 29.7081 75.5461 32.0351C77.0074 36.3373 79.3825 40.2867 80.7017 44.6459L81.0127 44.6459C80.4392 42.3112 79.5363 40.1035 78.5741 37.8974C77.5859 35.6309 76.5869 33.3567 75.8696 30.9819C75.5063 29.8067 75.2433 28.6016 75.0838 27.3802C74.9165 26.0288 74.8956 24.639 75.2969 23.3268C75.6815 22.0726 76.4046 20.9589 76.9113 19.7566C77.4021 18.5929 77.7612 17.376 77.9813 16.1293C78.1999 14.9035 78.2776 13.6558 78.2129 12.4117C78.2012 12.2021 78.1795 11.9933 78.1594 11.7837L77.6812 11.7837C77.7305 12.243 77.7648 12.7048 77.7698 13.1675C77.7979 14.625 77.6073 16.0784 77.2047 17.4773Z" fill="#575756"/>
<path d="M81.0004 13.781C80.9168 14.207 80.9394 14.6433 80.8875 15.0719C80.844 15.4332 80.7872 15.814 81.0129 16.0876C81.0696 16.1645 81.1464 16.2235 81.2345 16.258C81.7528 16.4326 82.4977 15.4127 82.7184 15.0736C83.1606 14.3996 83.4206 13.6003 83.5753 12.8062C83.6413 12.4654 83.6856 12.1245 83.7224 11.7837L83.3128 11.7837C83.281 12.0069 83.2242 12.3418 83.1255 12.7695C82.8597 13.9139 81.981 14.9611 81.6759 14.8427C81.4251 14.7472 81.6759 13.9403 81.6082 12.433C81.5973 12.2063 81.5797 11.9899 81.558 11.7837L81.0673 11.7837C81.1291 12.7593 81.0798 13.3754 81.0004 13.781Z" fill="#575756"/>
<path d="M77.9317 40.3135C77.3733 38.3026 76.7011 36.3002 75.7297 34.4528C75.5048 34.0268 75.3293 33.7269 74.9656 33.1381C74.2525 31.9844 73.8897 31.4084 73.577 31.4339C73.0946 31.4782 72.8355 32.672 72.7134 33.2318C72.3397 34.9547 72.588 36.019 72.6005 37.7086C72.6089 38.7056 72.5061 39.521 72.3004 41.1519C72.1558 42.2988 72.2218 43.4798 72.1675 44.6386L72.7418 44.6386C72.9926 42.7129 73.21 40.276 73.21 40.2427C73.2309 36.8728 73.2509 33.5369 73.99 33.3852C74.4322 33.294 74.9882 34.3753 75.6954 35.7506C75.9713 36.2865 76.5314 37.1914 77.6659 41.2175C77.9267 42.1412 78.1675 43.0699 78.4083 43.9996C78.4634 44.2151 78.5153 44.4256 78.5612 44.6386L79.0068 44.6386C78.9425 44.3234 78.8656 44.0149 78.7962 43.7252C78.5228 42.5868 78.2452 41.445 77.9317 40.3135Z" fill="#575756"/>
<path d="M76.4427 40.7544C76.2634 40.1759 76.0305 39.6161 75.7472 39.0826C75.2748 38.1581 74.9387 37.5011 74.6787 37.5488C74.1771 37.64 74.2465 40.3215 74.2607 40.9376C74.2875 41.9515 74.4229 43.3933 74.5784 44.645L75.1486 44.645C75.065 43.9982 74.902 42.744 74.8342 41.6218C74.7849 40.8174 74.6787 39.0604 74.9805 38.9974C75.2037 38.9505 75.5591 39.8494 75.6619 40.1127C76.2136 41.5119 76.6057 43.2075 76.8716 44.645L77.313 44.645C77.2227 44.0485 77.119 43.4597 76.9903 42.8752C76.8331 42.16 76.6506 41.4531 76.4427 40.7544Z" fill="#575756"/>
<path d="M75.815 14.9364C75.6787 16.275 75.1629 17.1723 74.7825 17.9263C74.6663 18.1581 72.6841 21.6866 72.5947 25.4758C72.5612 26.9064 72.7619 28.3635 72.4768 29.7788C72.2201 31.0689 71.6408 32.2652 71.3649 33.551C70.5916 37.1178 71.4594 41.1251 70.4938 44.6434L70.8416 44.6434C71.2596 43.142 71.3641 41.529 71.4142 39.9748C71.4911 37.5506 71.4301 35.0549 72.1591 32.7176C72.5771 31.3748 73.0971 30.1128 73.1732 28.6873C73.2844 26.5878 73.1732 25.8703 73.23 24.3868C73.4064 20.0037 76.1853 19.0622 76.5264 14.9969C76.6124 13.9174 76.5177 12.8308 76.2463 11.7837L75.4655 11.7837C75.5107 11.9337 75.5566 12.0853 75.5959 12.2481C75.8189 13.1249 75.893 14.0341 75.815 14.9364Z" fill="#575756"/>
<path d="M69.8222 41.7665C69.8916 40.8122 69.7829 40.9042 69.8146 39.6278C69.8514 38.1579 70.0119 37.38 69.7904 36.0754C69.6416 35.1986 69.4861 35.0717 69.3724 35.0333C68.8758 34.8672 67.9629 36.4282 67.7923 36.7213C66.5893 38.7782 66.321 40.8965 66.1922 41.6199C66.0484 42.4277 65.9916 43.2389 65.9164 44.0586C65.8988 44.2529 65.8771 44.4471 65.8478 44.6414L66.1822 44.6414C66.3318 43.993 66.5074 43.1665 66.7223 42.1201C66.9455 41.032 67.2665 39.5809 68.0599 37.9023C68.7136 36.5134 68.9636 36.5091 69.0355 36.5253C69.2478 36.5731 69.3147 37.1158 69.3482 38.5158C69.4075 41.0226 69.3373 42.2539 69.2286 43.0139C69.1525 43.5668 69.0274 44.1115 68.8549 44.6414L69.2503 44.6414C69.293 44.5289 69.3339 44.4131 69.3732 44.2912C69.6288 43.4728 69.7797 42.6242 69.8222 41.7665Z" fill="#575756"/>
<path d="M72.1964 18.113C71.8035 19.4644 71.327 20.8004 71.1598 22.2089C70.9926 23.6856 71.3663 25.0889 71.4365 26.5545C71.5477 28.8935 70.3497 30.9197 69.079 32.7671C67.7514 34.7047 66.3427 36.5605 65.6422 38.8492C65.057 40.7621 64.7334 43.1301 63.3657 44.6434L63.7495 44.6434C65.1891 43.0057 65.5494 40.429 66.2834 38.4274C67.1135 36.1592 68.7162 34.3025 70.0195 32.3137C70.6398 31.3671 71.2024 30.3761 71.5703 29.2974C71.9816 28.0908 72.0435 26.8655 71.888 25.6045C71.796 24.864 71.6647 24.1269 71.6455 23.3797C71.6361 22.6271 71.7203 21.8764 71.8963 21.1455C72.1847 19.8742 72.4456 19.0681 72.693 18.2953C73.0918 17.0504 73.565 15.5686 73.662 13.9821C73.7028 13.2482 73.674 12.5119 73.5758 11.7837L72.627 11.7837C72.726 12.3324 72.7894 12.8872 72.8168 13.4444C72.8912 15.0403 72.6412 16.5877 72.1964 18.113Z" fill="#575756"/>
<path d="M61.4147 19.7413C61.3001 21.9388 60.5669 23.5756 59.8572 25.1546C58.5614 28.044 57.8324 28.0516 57.5114 29.841C57.1669 31.7565 57.9628 31.9712 58.0364 34.8138C58.1099 37.6563 57.3801 39.8853 56.9295 41.2223C56.5308 42.4053 56.0285 43.5494 55.4289 44.6408L56.0868 44.6408C56.442 44.0381 56.7611 43.4141 57.0424 42.7722C57.3809 41.9968 58.2964 39.7601 58.5998 35.809C58.9225 31.65 58.0782 31.9968 58.6374 29.8785C59.231 27.6324 60.1423 27.3819 61.4799 23.6191C62.1804 21.6508 62.2799 20.7374 62.3159 20.238C62.4145 18.7384 62.1361 17.6187 61.678 15.8379C61.3207 14.4576 60.8733 13.1032 60.3387 11.7837L59.8823 11.7837C60.2567 12.8475 60.5679 13.9333 60.8144 15.0352C61.2115 16.811 61.5008 18.1078 61.4147 19.7413Z" fill="#575756"/>
<path d="M59.979 17.9718C60.1145 18.9661 60.1003 19.9759 59.8419 20.9498C59.6154 21.8019 59.2459 22.6096 58.8304 23.385C58.0069 24.9256 57.0029 26.3878 56.4561 28.0655C55.9637 29.5771 55.9646 30.9149 55.9378 33.0851C55.9194 34.5047 56.0047 35.4888 56.0281 35.8868C56.1376 37.7102 55.7522 40.4957 53.5351 44.6419L54.076 44.6419C55.001 43.0892 55.6968 41.4062 56.141 39.647C57.5956 33.7855 55.0868 31.2497 57.262 27.4767C58.1769 25.9411 59.014 24.3587 59.77 22.7357C60.1515 21.9401 60.4141 21.0909 60.5492 20.2161C60.693 19.1885 60.5927 18.1379 60.3979 17.1239C60.188 16.035 59.8787 14.9673 59.5962 13.8971C59.3738 13.0578 59.2618 12.3446 59.1656 11.7856L58.2544 11.7856C58.4809 12.4315 58.8663 13.3262 59.1899 14.5421C59.495 15.6728 59.8202 16.8112 59.979 17.9718Z" fill="#575756"/>
<path d="M58.2316 19.0656C58.1789 19.4175 58.0435 20.1426 56.7887 22.8735C56.0898 24.3945 56.1065 24.2241 55.7771 24.991C54.4938 27.9681 54.5925 29.7234 53.9538 29.8248C53.5358 29.8921 53.0668 29.2062 52.7157 28.5467L52.7157 30.434C53.5625 31.5494 54.4228 32.1902 54.8057 32.0198C55.2563 31.8187 54.916 30.5781 55.5196 27.8122C55.8774 26.1711 56.2478 25.7058 57.0094 23.9685C57.4784 22.8999 57.3981 22.8999 57.8228 21.9652C58.1337 21.28 58.4797 20.6119 58.8595 19.9637C59.3937 19.0093 59.4154 16.8757 57.302 11.7837L56.5805 11.7837C56.9701 12.6409 57.7693 14.5155 58.0995 16.1523C58.2391 16.8451 58.4189 17.8181 58.2316 19.0656Z" fill="#575756"/>
<path d="M56.4463 19.0102C56.375 19.2992 56.2817 19.5822 56.167 19.8563C56.0947 20.0314 56.0126 20.202 55.9213 20.3676C55.7185 20.7313 55.4837 21.0755 55.2198 21.396C54.3479 22.45 54.0193 24.6203 53.6089 24.5828C53.5253 24.5751 53.343 24.4644 53.134 22.9792C52.986 21.9133 52.9195 20.8373 52.935 19.7609C52.9328 19.2459 52.8602 18.7337 52.7194 18.2391L52.7194 25.6846C52.9451 26.4216 53.3238 27.4739 53.7109 27.4475C54.2827 27.41 54.0561 25.0711 55.4589 22.139C56.1863 20.6189 56.9922 20.3403 57.2288 18.9352C57.3441 18.2459 57.3726 17.5173 57.0833 16.1233C56.7645 14.6268 56.2828 13.1712 55.647 11.7837L54.8345 11.7837C55.2917 12.7849 55.9589 14.3979 56.3493 16.1097C56.3493 16.1097 56.7347 17.8054 56.4463 19.0102Z" fill="#575756"/>
<path d="M68.5842 39.4442C68.5098 39.1792 68.4445 39.0505 68.3593 39.0428C67.9413 39.0054 67.3502 41.8709 66.8662 44.6419L68.2038 44.6419C68.6803 43.1201 69.0005 40.9319 68.5842 39.4442Z" fill="#575756"/>
<path d="M82.473 13.0465C82.5984 13.0286 82.7338 12.7695 82.8074 11.7837L81.9296 11.7837C81.9689 12.2464 81.9722 12.4313 82.0968 12.6639C82.1394 12.7389 82.32 13.0678 82.473 13.0465Z" fill="#575756"/>
<path d="M63.6083 22.2549C63.3449 23.533 62.6594 24.6407 62.0056 25.7365C61.3386 26.8361 60.7935 28.0078 60.3804 29.2301C59.7911 31.0237 59.496 32.9545 59.1223 36.8988C58.8798 39.455 58.8756 40.6079 58.2286 42.4186C57.9531 43.1872 57.6141 43.9306 57.2153 44.6408L57.8683 44.6408C58.4447 43.7765 58.8952 42.8317 59.2059 41.8358C59.5871 40.596 59.5829 39.772 59.6849 38.2315C59.8579 35.63 60.0109 33.0116 60.6839 30.4826C61.0075 29.2223 61.4823 28.0074 62.0976 26.8655C62.728 25.7203 63.4812 24.6314 63.9285 23.3907C64.7084 21.2273 64.1692 18.965 63.4795 16.8595C63.0849 15.6547 62.6318 14.4669 62.3091 13.239C62.1831 12.7604 62.086 12.2744 62.0182 11.7837L61.555 11.7837C61.7089 13.1607 62.1737 14.5308 62.5934 15.8055C63.2697 17.8565 64.0597 20.0634 63.6083 22.2549Z" fill="#575756"/>
<path d="M70.7677 17.1237C70.4333 18.3941 69.7938 19.5547 69.4836 20.8354C69.1793 22.0888 69.1066 23.3814 69.0556 24.6697C68.9636 27.0044 68.9243 29.5266 67.6034 31.546C66.9547 32.537 65.9414 33.2042 65.4231 34.2948C64.9115 35.3702 64.7485 36.5742 64.399 37.7032C63.9555 39.0968 63.4025 40.4517 62.7454 41.7548C62.263 42.7347 61.7221 43.6814 61.2046 44.6417L61.8024 44.6417C62.2204 43.8927 62.6133 43.1301 62.9962 42.3683C63.5845 41.2154 64.103 40.0267 64.5487 38.8092C64.9667 37.6452 65.1982 36.4293 65.5953 35.2611C65.7821 34.6752 66.0804 34.1326 66.4731 33.6643C66.8845 33.1914 67.3643 32.7866 67.7531 32.2916C69.2044 30.4443 69.4869 28.0022 69.6073 25.7169C69.6776 24.3902 69.7051 23.0525 69.9284 21.7394C70.1516 20.4264 70.7025 19.2121 71.0929 17.9366C71.7007 15.9521 71.6238 13.8398 71.291 11.7837L70.8906 11.7837C71.1355 13.5654 71.2426 15.3565 70.7677 17.1237Z" fill="#575756"/>
<path d="M64.0791 16.2599C64.4135 17.1972 64.8683 18.4753 65.0556 19.9716C65.2947 21.8896 64.8349 22.0583 64.4846 25.7402C64.4846 25.7402 64.3483 27.1555 63.7213 28.0408C63.3869 28.5188 63.0617 28.7412 62.7181 28.9781C62.7181 28.9781 62.4957 29.1417 62.0493 29.5132C61.1949 30.2204 60.9717 31.8615 60.8505 32.7511C60.7874 33.2075 60.7497 33.6673 60.7376 34.1281C60.7217 34.8949 60.6131 38.5061 59.8389 41.3103C59.5147 42.4732 59.0547 43.5924 58.4687 44.6436L58.7362 44.6436C59.3098 43.7518 59.7684 42.7884 60.1006 41.7772C60.8304 39.5388 61.1999 36.2088 61.1874 33.4754C61.1874 33.4754 61.1765 30.6294 62.2784 29.7492C62.8444 29.2968 62.902 29.2533 62.902 29.2533C63.2515 29.0113 63.6135 28.7617 63.9889 28.2359C64.6276 27.3327 64.7413 26.398 64.8148 25.7487C65.1133 23.2274 65.4 22.1001 65.5923 21.3545C65.7771 20.6345 65.869 20.2732 65.7637 19.3947C65.6358 18.3296 65.3749 17.7809 65.0113 17.0208C64.4949 15.962 64.0719 14.8585 63.7472 13.7233C63.5566 13.0834 63.3894 12.4341 63.2406 11.7822L62.7215 11.7822C62.8209 12.535 62.9869 13.277 63.2172 13.9993C63.4948 14.8787 63.7013 15.1999 64.0791 16.2599Z" fill="#575756"/>
<path d="M68.9984 16.9865C68.8989 17.2805 68.7902 17.5395 68.5854 18.1726C68.0793 19.7546 67.7156 21.3803 67.4986 23.0295C66.9544 27.07 67.6967 27.6827 66.8039 28.9463C66.7203 29.0605 66.7203 29.0528 65.0592 31.2171C64.55 31.8809 64.2942 32.2123 64.2708 32.2498C63.4348 33.5833 63.4014 34.7746 63.1447 36.3816C63.1447 36.3816 62.9198 37.7909 62.2978 39.9995C61.9584 41.2052 61.3498 42.8114 60.1719 44.6399L60.5105 44.6399C61.3955 43.2221 62.1011 41.6958 62.6105 40.0975C63.4139 37.5344 63.6697 36.2674 63.6697 36.2674C64.0392 34.4397 64.0242 33.5612 64.7448 32.4969C65.5081 31.3679 66.0983 30.7987 66.0983 30.7987C66.38 30.5269 66.6492 30.2977 66.9828 29.8615C67.9475 28.5944 67.935 27.4756 67.9175 25.9368C67.9016 24.6484 67.8848 23.0465 68.4191 20.7493C68.5842 20.0065 68.8079 19.2784 69.0879 18.5722C69.3684 17.9015 69.5547 17.1939 69.6413 16.4701C69.8416 14.9089 69.7811 13.3244 69.4624 11.7837L69.118 11.7837C69.6137 14.2096 69.3788 15.8618 68.9984 16.9865Z" fill="#575756"/>
<path d="M68.2007 13.4734C68.1288 14.2147 68.0151 14.2794 67.2711 16.7965C66.3172 20.0199 66.1006 21.2835 66.0287 21.6994C65.8415 22.8326 65.7479 23.4035 65.732 24.1039C65.6902 25.918 65.9334 27.001 65.3064 28.3371C65.2335 28.485 65.1369 28.6195 65.0205 28.735C64.325 29.4635 63.1312 29.8546 62.5409 31.3347C62.4634 31.5335 62.4008 31.738 62.3537 31.9465C61.8696 33.9131 61.8362 35.7723 61.7902 36.5759C61.6723 38.6635 61.1013 40.2262 60.4969 41.8792C60.1508 42.8274 59.7422 43.7506 59.2738 44.6425L59.6868 44.6425C59.7704 44.4559 59.854 44.2565 59.951 44.0358C61.4993 40.3813 62.4674 38.0968 62.3913 35.4664C62.3721 34.8137 62.2625 33.2272 62.9573 31.6457C63.0537 31.4036 63.1751 31.1725 63.3193 30.9564C64.126 29.7771 65.1376 29.9433 65.7019 28.9293C65.8908 28.5884 65.9485 28.2655 66.0513 27.6818C66.1293 27.2033 66.1629 26.7183 66.1516 26.2333C66.1567 25.486 66.2026 24.7396 66.2177 23.9923C66.16 24.2479 66.4417 20.4059 68.0828 15.8865C68.4849 14.7839 68.6521 13.3694 68.4598 11.7837L68.1823 11.7837C68.2486 12.3446 68.2548 12.9111 68.2007 13.4734Z" fill="#575756"/>
<path d="M64.2868 13.3907C64.454 13.9309 64.5193 14.2684 64.7533 14.8512C64.7642 14.8776 64.842 15.0847 64.949 15.3045C65.5049 16.4395 65.8744 17.1936 66.2205 17.1791C66.7965 17.1527 67.2237 14.9841 67.2563 13.481C67.2672 12.9127 67.2266 12.3445 67.1351 11.7837L66.8417 11.7837C66.9371 12.341 66.9652 12.9082 66.9253 13.4725C66.9069 13.7281 66.7965 15.5448 66.2163 15.6479C65.8217 15.7178 65.2917 14.985 65.071 14.4618C64.9707 14.2249 65.02 14.2334 64.7709 13.4862C64.6355 13.0806 64.5744 12.9366 64.4967 12.6238C64.4189 12.3111 64.4131 12.1765 64.3579 11.8791L64.3429 11.7837L63.7652 11.7837C63.8078 11.9609 63.8488 12.1245 63.8931 12.2617C64.0444 12.7619 64.087 12.7338 64.2868 13.3907Z" fill="#575756"/>
<path d="M66.0319 14.5385C66.2961 14.4797 66.2417 13.2501 66.22 12.7593C66.2074 12.4892 66.184 12.1629 66.1364 11.7837L65.1332 11.7837C65.287 12.7755 65.2168 13.4308 65.6557 14.1559C65.751 14.3118 65.9048 14.5666 66.0319 14.5385Z" fill="#575756"/>
<path d="M54.352 34.1936C54.2233 33.9729 54.0026 33.6551 53.5611 33.0186C53.261 32.5857 52.9759 32.1887 52.7159 31.8257L52.7159 32.7834C52.792 32.9044 52.8681 33.0254 52.9442 33.1575C53.582 34.2584 54.3955 35.6609 54.464 37.5755C54.464 37.6565 54.5209 39.5634 53.817 41.0188C53.6414 41.3818 53.4065 41.7422 53.113 42.4827C53.0006 42.7977 52.8679 43.1048 52.7159 43.4021L52.7159 44.5617C53.7907 43.0208 54.5131 41.2541 54.8302 39.3913C55.0375 38.1209 55.3887 35.9719 54.352 34.1936Z" fill="#575756"/>
<path d="M53.5518 36.6644C53.3962 35.8535 53.1139 35.0733 52.7158 34.3535L52.7158 41.937C53.5911 40.332 53.8869 38.4652 53.5518 36.661L53.5518 36.6644Z" fill="#575756"/>
<path d="M53.8232 20.5318C53.9335 20.9143 53.9862 21.0541 54.0865 21.0711C54.5129 21.141 55.5303 18.9946 55.4049 16.8107C55.3213 15.3681 54.7261 13.6947 54.0899 13.664C53.8349 13.6521 53.5615 13.9017 53.4336 14.125C53.2062 14.5229 53.3358 14.9941 53.3809 15.1764C53.8098 16.8908 53.0883 17.9789 53.8232 20.5318ZM53.9277 15.4559C53.8436 15.217 53.8243 14.9595 53.8717 14.7103C53.8834 14.6533 53.9636 14.2843 54.0966 14.2698C54.3766 14.24 54.9802 15.7831 54.9409 17.3884C54.91 18.6614 54.4778 19.8748 54.247 19.8595C54.069 19.845 53.9402 19.0926 53.9277 19.0176C53.8995 18.8537 53.8872 18.6873 53.8909 18.5209C53.9076 17.9193 53.9812 17.6611 54.0213 17.2197C54.064 16.7468 54.1216 16.1146 53.9277 15.4559Z" fill="#575756"/>
</g>
</mask>
<g mask="url(#mask0_45330_2434)">
<circle cx="68.7769" cy="27.9102" r="16.1246" fill="#C38C40"/>
</g>
<path fill-rule="evenodd" clip-rule="evenodd" d="M70.878 8.14853C71.0413 8.13379 71.1759 8.12163 71.256 8.12163C71.8944 8.12163 72.5123 8.39689 73.0947 8.65635C73.1217 8.66837 73.1486 8.68035 73.1754 8.69227C73.4705 8.82342 73.759 8.97977 74.0489 9.13688C74.6624 9.46937 75.2824 9.80532 75.9847 9.91337C76.0709 9.92663 76.1543 9.96172 76.2383 9.99703C76.2981 10.0222 76.3581 10.0474 76.4197 10.065C76.8527 10.1887 77.3821 10.3931 77.8004 10.5918C78.1802 10.7722 78.5331 10.9825 78.8894 11.1948C79.1859 11.3715 79.4848 11.5496 79.8036 11.7131C80.0329 11.8307 80.2587 12.0075 80.4421 12.176C80.5613 12.2856 80.6863 12.3793 80.81 12.4721C80.965 12.5884 81.1182 12.7034 81.2561 12.8464C81.3132 12.9056 81.4415 12.9954 81.5828 13.0944C81.8279 13.2661 82.1124 13.4654 82.1341 13.5806C82.1576 13.7061 82.3076 13.8124 82.4541 13.9164C82.565 13.995 82.6739 14.0722 82.7247 14.1553C82.8124 14.2989 82.9833 14.4225 83.1544 14.5462C83.3823 14.7111 83.6105 14.8762 83.6425 15.089C83.6907 15.4106 84.1532 15.8425 84.4326 16.0069C84.4859 16.0382 84.5108 16.0844 84.5369 16.1328C84.5561 16.1684 84.576 16.2052 84.6082 16.2383C84.6837 16.316 84.7708 16.3849 84.8581 16.454C84.9934 16.561 85.129 16.6684 85.2227 16.8089C85.2729 16.8842 85.3323 16.9476 85.3928 17.0121C85.4627 17.0865 85.5339 17.1624 85.5938 17.2599C85.6781 17.3968 85.7614 17.5347 85.8446 17.6723C85.9849 17.9045 86.1249 18.136 86.2682 18.3612C86.4937 18.7156 86.5831 19.1027 86.6741 19.4967C86.7131 19.6657 86.7525 19.8359 86.8029 20.0053C87.0395 20.7995 87.1914 21.5723 87.3456 22.3877C87.3578 22.4517 87.3697 22.5237 87.3824 22.6009C87.452 23.0225 87.5467 23.5964 87.8405 23.8482C87.9181 23.9147 87.9005 24.1059 87.8878 24.2438C87.8837 24.2885 87.8801 24.3276 87.8804 24.355C87.882 24.4899 87.8992 24.6226 87.9163 24.7552C87.9343 24.894 87.9522 25.0325 87.9522 25.173C87.9522 25.269 88.0344 25.3907 88.1042 25.4941C88.1281 25.5295 88.1505 25.5627 88.1677 25.592C88.4067 25.9998 88.5545 26.4795 88.6865 26.9249C89.0193 28.0481 89.0067 29.359 88.9578 30.5323C88.9377 31.0146 88.8439 31.6023 88.7264 32.0726C88.6242 32.4812 88.4548 33.105 88.1837 33.4214C87.9334 33.7134 87.7286 34.0704 87.5532 34.411C87.485 34.5434 87.4719 34.6754 87.4587 34.8087C87.4477 34.9197 87.4366 35.0316 87.3935 35.1453C87.2252 35.589 86.9779 35.9366 86.7271 36.2892C86.5677 36.5131 86.407 36.7391 86.2642 36.9929C86.1109 37.2655 85.8435 37.5118 85.5844 37.7503C85.4295 37.893 85.2776 38.0329 85.1549 38.1741C85.0601 38.2831 84.9696 38.4038 84.8782 38.5257C84.7083 38.7525 84.5351 38.9836 84.3248 39.1517C84.1604 39.2833 83.9324 39.8086 83.854 40.0177C83.7886 40.192 83.6828 40.3414 83.5769 40.4909C83.4811 40.6262 83.3852 40.7615 83.3192 40.9155C83.1546 41.2997 82.8884 41.5645 82.62 41.8315C82.4776 41.9731 82.3347 42.1153 82.2059 42.2763C82.1825 42.3055 82.1588 42.3348 82.1351 42.3642C81.9309 42.6169 81.7189 42.8793 81.6153 43.1901C81.5492 43.3885 81.4679 43.6196 81.2561 43.6929C81.0762 43.7552 80.6541 44.0715 80.6257 44.2516C80.617 44.3066 80.614 44.357 80.6112 44.404C80.6029 44.543 80.5964 44.6533 80.4501 44.7704C79.9675 45.1564 79.7694 45.1854 79.1891 45.1854H78.6144C78.1584 45.1854 78.0454 45.261 77.8004 45.5844C77.7448 45.6578 77.7201 45.728 77.699 45.788C77.6566 45.9085 77.6285 45.9883 77.3933 45.9715C77.3671 45.9696 77.3414 45.968 77.3164 45.9663C77.006 45.9461 76.808 45.9333 77.0621 45.6283C77.2999 45.343 76.8596 45.5923 76.3394 45.8869C75.9831 46.0886 75.5893 46.3116 75.3502 46.3985C75.1692 46.4643 75.0076 46.5699 74.8463 46.6754C74.6619 46.7959 74.4777 46.9163 74.2648 46.9771C74.1702 47.0041 74.0697 46.9956 73.9692 46.9871C73.8491 46.9769 73.729 46.9667 73.6183 47.017C73.489 47.0758 73.3219 47.1067 73.1646 47.1358C73.0692 47.1535 72.9775 47.1705 72.9001 47.1926C72.6582 47.2617 72.3341 47.2381 72.0349 47.2163C71.8968 47.2063 71.764 47.1966 71.647 47.1966C71.1548 47.1966 70.689 47.2228 70.2105 47.2684C70.0282 47.2858 69.8567 47.347 69.6845 47.4085C69.479 47.4819 69.2724 47.5557 69.0452 47.5557C69.0113 47.5557 68.9641 47.5547 68.9078 47.5534C68.5644 47.5457 67.8791 47.5304 67.7523 47.6994C67.3723 48.206 66.3104 47.829 65.9566 47.5717C65.6745 47.3666 65.0683 47.3402 64.7155 47.3402C64.4203 47.3402 63.9442 47.288 63.67 47.1966C63.6117 47.1771 63.5496 47.1578 63.4857 47.138C63.2164 47.0542 62.913 46.9599 62.7043 46.7975C62.5772 46.6987 62.36 46.5501 62.1975 46.5501C61.9737 46.5501 61.5895 46.4429 61.3715 46.3666C61.2468 46.3229 61.1092 46.3137 60.9735 46.3047C60.8218 46.2946 60.6724 46.2846 60.5455 46.2269C60.1855 46.0633 59.9261 45.8909 59.6516 45.6163C59.5108 45.4756 59.3261 45.2935 59.1169 45.2412C58.8152 45.1658 58.4889 45.1313 58.1791 45.1175C58.1273 45.1152 58.063 45.1196 57.9935 45.1243C57.8034 45.1372 57.5744 45.1528 57.4568 45.0417C57.1951 44.7946 56.9922 44.4862 56.7869 44.1743C56.6121 43.9088 56.4356 43.6406 56.2198 43.4056C56.0641 43.2361 55.9266 43.0657 55.7937 42.9009C55.404 42.4179 55.0525 41.9821 54.3921 41.7535C53.4181 41.4164 52.4996 40.6316 52.0736 39.6945C51.8033 39.0998 51.4439 38.4904 51.0401 37.9745C50.9323 37.8367 50.8186 37.7374 50.714 37.646C50.4937 37.4534 50.3138 37.2962 50.3138 36.8891C50.3138 36.8118 50.3147 36.7341 50.3155 36.6563C50.321 36.1464 50.3265 35.6309 50.0983 35.1612C49.7969 34.5405 49.5138 33.9094 49.3242 33.2458C49.1872 32.7662 49.2026 32.2495 49.218 31.7339C49.2347 31.178 49.2513 30.6232 49.0768 30.1173C49.0023 29.9014 48.8554 29.7071 48.7087 29.5132C48.532 29.2796 48.3557 29.0464 48.3066 28.7764C48.281 28.6358 48.2209 28.4989 48.1617 28.3639C48.0999 28.2233 48.0391 28.0848 48.0193 27.9464C47.9914 27.751 47.9997 27.5408 48.0078 27.3353C48.0116 27.2393 48.0153 27.1444 48.0153 27.0526C48.0153 26.5098 48.1747 26.1102 48.3548 25.6588C48.4059 25.5305 48.4588 25.398 48.5101 25.2568C48.5566 25.129 48.5733 24.921 48.5908 24.7033C48.6218 24.3176 48.6553 23.901 48.8613 23.8442C49.1414 23.7669 49.7424 23.5748 49.8988 23.2775C49.988 23.1081 49.9746 22.8703 49.9625 22.6559C49.9585 22.5855 49.9547 22.5176 49.9547 22.4555C49.9547 22.0489 49.8462 21.663 49.7381 21.2783C49.6307 20.8963 49.5237 20.5155 49.5237 20.1171V19.327C49.5237 19.0728 49.6889 18.956 49.8625 18.8332C49.9355 18.7816 50.01 18.7289 50.0744 18.6645C50.5723 18.1667 50.9499 17.6565 51.3388 17.1312C51.5173 16.89 51.6981 16.6457 51.8941 16.3979L51.912 16.3753C52.2444 15.9549 52.5799 15.5306 52.8638 15.089C53.0387 14.817 53.1739 14.5783 53.2628 14.267C53.3423 13.989 53.6711 13.7613 53.944 13.5723C54.0321 13.5114 54.1144 13.4544 54.1806 13.4011C54.286 13.3162 54.4004 13.2341 54.5165 13.1508C54.8515 12.9104 55.2004 12.6602 55.3858 12.3037C55.5809 11.9285 55.8646 11.4856 56.1679 11.1823C56.2549 11.0954 56.43 11.022 56.5885 10.9556C56.6722 10.9205 56.7513 10.8873 56.8104 10.8551C57.182 10.6524 57.5702 10.4782 57.9603 10.3031C58.5726 10.0284 59.1897 9.7515 59.7554 9.35869C61.377 8.23257 63.5614 8.30891 65.5266 8.37758C65.963 8.39283 66.3885 8.4077 66.7946 8.40895C66.992 8.40956 67.1959 8.42449 67.4005 8.43948C68.0887 8.48988 68.7856 8.54093 69.2767 8.0498C69.5252 8.27067 70.3507 8.19613 70.878 8.14853ZM68.4915 46.1464C78.5136 46.1464 86.6381 38.0219 86.6381 27.9998C86.6381 17.9778 78.5136 9.85332 68.4915 9.85332C58.4695 9.85332 50.345 17.9778 50.345 27.9998C50.345 38.0219 58.4695 46.1464 68.4915 46.1464Z" fill="#F2F2F2"/>
<path d="M93.0821 44V17.686H90.0548V10.7H106.216C112.69 10.7 117.067 15.4505 117.067 22.1571C117.067 28.8636 112.69 33.7073 106.216 33.7073H101.419V44H93.0821ZM101.419 26.7212H104.539C107.24 26.7212 108.544 24.8117 108.544 22.1571C108.544 19.5024 107.24 17.686 104.679 17.686H101.419V26.7212Z" fill="#F2F2F2"/>
<defs>
<clipPath id="clip0_45330_2434">
<rect width="32.858" height="32.238" fill="white" transform="translate(84.9529 11.7837) rotate(90)"/>
</clipPath>
</defs>
</svg>
