<svg width="1848.231445" height="628.219971" viewBox="0 0 1848.23 628.22" fill="none" xmlns="http://www.w3.org/2000/svg" xmlns:xlink="http://www.w3.org/1999/xlink">
	<desc>
			Created with Pixso.
	</desc>
	<defs>
		<clipPath id="clip45383_4619">
			<rect id="Asset 1 1" rx="0.000000" width="516.590454" height="506.829224" transform="translate(1332.085327 59.169827) rotate(90.000000)" fill="white" fill-opacity="0"/>
		</clipPath>
	</defs>
	<path id="W" d="M49.47 166.4L148.43 561.49L297.59 561.49L363.07 319.2C372.53 285.73 373.26 263.9 373.26 263.9L374.71 263.9C374.71 263.9 375.44 285.73 384.9 319.2L450.38 561.49L599.54 561.49L698.5 166.4C701.41 154.03 707.23 150.39 718.87 150.39L737.06 150.39L737.06 41.25L643.92 41.25C607.54 41.25 585.72 51.44 579.17 83.45L521.69 355.58C515.14 387.59 515.14 410.15 515.14 410.15L513.68 410.15C513.68 410.15 512.96 387.59 504.95 355.58L426.37 41.98L322.32 41.98L243.02 355.58C235.01 387.59 234.28 410.15 234.28 410.15L232.83 410.15C232.83 410.15 232.83 387.59 226.28 355.58L168.8 83.45C162.25 51.44 139.7 41.25 104.04 41.25L10.91 41.25L10.91 150.39L29.1 150.39C40.74 150.39 46.56 154.03 49.47 166.4Z" fill="#727272" fill-opacity="1.000000" fill-rule="evenodd"/>
	<mask id="mask45383_4619" mask-type="alpha" maskUnits="userSpaceOnUse" x="824.125488" y="58.792953" width="507.582977" height="517.344177">
		<rect id="Asset 1 1" rx="0.000000" width="516.590454" height="506.829224" transform="translate(1332.085327 59.169827) rotate(90.000000)" fill="#FFFFFF" fill-opacity="0"/>
		<g clip-path="url(#clip45383_4619)">
			<path id="Vector" d="M1315.04 102.49C1308.46 110.42 1307.43 112.88 1289.88 149.25C1282.85 163.83 1275.85 178.48 1267.41 192.3C1257.77 208.09 1246.35 222.9 1238.86 239.99C1223.35 275.49 1228.82 314.75 1240.68 350.47C1248.57 374.35 1251.97 371.47 1262.72 404.86C1270.24 428.25 1271.73 440.35 1282.32 465.23C1285.09 471.7 1289.49 480.08 1298.29 496.85C1311.35 521.73 1315.34 527 1322.22 529.36C1325.3 530.33 1328.52 530.75 1331.74 530.61L1331.74 523.55C1328.62 521.72 1325.82 519.35 1323.49 516.55C1317.17 509.29 1313.8 500.29 1310.02 491.53L1283.69 430.63C1251.94 357.26 1248.05 355.5 1243.67 325.6C1239.72 298.58 1242.22 279.7 1243.31 272.76C1246.18 255.7 1251.5 239.17 1259.11 223.71C1267.93 205.57 1271.51 207 1284.74 182.05C1291.74 168.84 1297.98 155.22 1304.6 141.8C1311.13 128.55 1318.01 115.53 1326.48 103.5C1328.25 100.96 1330.03 98.63 1331.74 96.44L1331.74 86.13C1325.63 90.97 1320.03 96.46 1315.04 102.49Z" fill="#575756" fill-opacity="1.000000" fill-rule="nonzero"/>
			<path id="Vector" d="M1318.71 148.11C1314.63 158.94 1307.59 177.37 1299.06 192.76C1289.86 209.41 1287.22 207.51 1278.79 222.15C1267.47 241.89 1263.97 260.02 1261.98 270.95C1257.63 295.3 1258.29 320.31 1263.93 344.38C1268.21 363.93 1275.31 382.72 1284.99 400.15C1290.34 409.79 1298.35 420.05 1314.37 440.58C1319.41 447.28 1325.24 453.33 1331.74 458.58L1331.74 441.01C1328.12 438.11 1324.65 435.02 1321.34 431.75C1304.1 414.71 1295.66 397.24 1288.54 382.11C1281.1 366.29 1274.39 352.14 1271.09 331.45C1265.99 299.44 1272.31 272.84 1275.25 261.03C1277.52 251.78 1280.48 242.72 1284.1 233.93C1293.56 211.12 1300.24 208.13 1313.43 182.21C1316.5 176.12 1320.87 165.58 1329.63 144.49L1331.74 139.36L1331.74 120.96C1330.53 122.86 1329.33 124.82 1328.23 126.75C1324.45 133.57 1321.27 140.72 1318.71 148.11Z" fill="#575756" fill-opacity="1.000000" fill-rule="nonzero"/>
			<path id="Vector" d="M1292.09 332.27C1294.17 351.64 1299.57 370.8 1309.68 387.48C1313.85 394.36 1322.53 404.92 1331.74 408.46L1331.74 401.95C1319.76 395.41 1312.15 378.19 1307.9 366.35C1295.68 332.33 1298.14 294.67 1305.93 259.92C1309.75 243.03 1314.56 226.11 1321.74 210.28C1324.57 204.15 1327.92 198.27 1331.74 192.72L1331.74 177.96C1322.25 188.44 1315.54 202.23 1310.61 214.84C1296.4 251.21 1287.9 293.04 1292.09 332.27Z" fill="#575756" fill-opacity="1.000000" fill-rule="nonzero"/>
			<path id="Vector" d="M1321.42 264.84C1317.4 275.85 1315.77 287.62 1316.66 299.33C1317.45 312.94 1320.52 326.28 1323.89 339.43C1325.35 345.11 1327.52 351.41 1331.78 355.29L1331.78 344.44C1330.05 339.27 1329.37 333.22 1328.61 329.45C1326.32 318.3 1324.29 307.09 1324.25 295.64C1324.06 285.87 1325.75 276.15 1329.23 267.04C1329.98 265.24 1330.81 263.47 1331.73 261.75L1331.73 247C1326.99 251.97 1323.66 259.02 1321.42 264.84Z" fill="#575756" fill-opacity="1.000000" fill-rule="nonzero"/>
			<path id="Vector" d="M1243.55 146.53C1238.93 165.2 1234.99 168.18 1221.17 202.58C1210.1 230.14 1203.43 246.74 1199.9 262.21C1191.57 298.7 1200.77 328.94 1215.25 374.6C1235.57 438.73 1237.97 431.92 1261.12 483.36C1274.6 513.32 1286.3 543.95 1292.87 576.13L1297.94 576.13C1293.28 539.55 1279.31 504.53 1264.75 470.99C1233.77 399.69 1193.25 322.2 1219 242.59C1224.96 224.1 1233.02 206.43 1239.6 188.24C1246.28 169.6 1250.87 150.24 1253.28 130.55C1255.64 110.69 1256.56 90.67 1256.04 70.67L1255.8 58.79L1247.91 58.79C1248.3 65.5 1248.6 72.2 1248.67 78.91C1248.92 108.16 1247.32 131.61 1243.55 146.53Z" fill="#575756" fill-opacity="1.000000" fill-rule="nonzero"/>
			<path id="Vector" d="M1209.72 148.43C1204.06 168.09 1195.3 185.78 1185.63 203.68C1175.81 221.89 1167.85 240.33 1165.48 261.14C1161.04 300.17 1171.15 341 1183.6 377.64C1206.61 445.38 1244.01 507.56 1264.78 576.2L1269.67 576.2C1260.64 539.44 1246.43 504.68 1231.28 469.95C1215.72 434.26 1199.99 398.45 1188.69 361.06C1182.97 342.56 1178.82 323.58 1176.31 304.35C1173.68 283.07 1173.36 261.19 1179.68 240.53C1185.73 220.79 1197.12 203.25 1205.1 184.32C1212.81 166 1218.48 146.84 1221.93 127.21C1225.39 107.91 1226.61 88.26 1225.59 68.68C1225.41 65.37 1225.06 62.09 1224.75 58.79L1217.22 58.79C1218 66.02 1218.54 73.29 1218.61 80.57C1219.06 103.52 1216.05 126.41 1209.72 148.43Z" fill="#575756" fill-opacity="1.000000" fill-rule="nonzero"/>
			<path id="Vector" d="M1269.48 90.23C1268.16 96.94 1268.52 103.81 1267.69 110.56C1267.02 116.25 1266.12 122.25 1269.68 126.55C1270.56 127.76 1271.78 128.69 1273.17 129.23C1281.32 131.99 1293.05 115.93 1296.53 110.59C1303.49 99.97 1307.59 87.39 1310.02 74.89C1311.06 69.52 1311.76 64.15 1312.34 58.79L1305.89 58.79C1305.39 62.3 1304.49 67.57 1302.93 74.31C1298.75 92.33 1284.92 108.82 1280.11 106.95C1276.17 105.45 1280.11 92.74 1279.05 69.01C1278.88 65.44 1278.6 62.03 1278.26 58.79L1270.53 58.79C1271.51 74.15 1270.73 83.85 1269.48 90.23Z" fill="#575756" fill-opacity="1.000000" fill-rule="nonzero"/>
			<path id="Vector" d="M1221.16 507.98C1212.37 476.32 1201.79 444.79 1186.49 415.71C1182.94 409 1180.18 404.28 1174.46 395.01C1163.23 376.84 1157.52 367.77 1152.6 368.17C1145 368.87 1140.92 387.67 1139 396.48C1133.12 423.61 1137.03 440.37 1137.22 466.97C1137.36 482.67 1135.74 495.51 1132.5 521.18C1130.22 539.24 1131.26 557.84 1130.41 576.08L1139.44 576.08C1143.4 545.76 1146.81 507.39 1146.81 506.87C1147.15 453.81 1147.47 401.29 1159.1 398.9C1166.06 397.46 1174.81 414.49 1185.94 436.14C1190.3 444.58 1199.12 458.83 1216.98 522.22C1221.07 536.76 1224.88 551.38 1228.67 566.02C1229.54 569.41 1230.35 572.73 1231.07 576.08L1238.09 576.08C1237.07 571.12 1235.87 566.26 1234.77 561.7C1230.47 543.78 1226.1 525.8 1221.16 507.98Z" fill="#575756" fill-opacity="1.000000" fill-rule="nonzero"/>
			<path id="Vector" d="M1197.72 514.93C1194.9 505.82 1191.23 497 1186.77 488.6C1179.32 474.05 1174.04 463.7 1169.93 464.45C1162.05 465.89 1163.14 508.11 1163.36 517.81C1163.78 533.77 1165.92 556.47 1168.36 576.18L1177.34 576.18C1176.03 566 1173.46 546.25 1172.39 528.58C1171.62 515.92 1169.93 488.25 1174.69 487.26C1178.21 486.52 1183.8 500.68 1185.42 504.82C1194.11 526.85 1200.28 553.55 1204.47 576.18L1211.42 576.18C1210 566.79 1208.37 557.52 1206.34 548.32C1203.86 537.06 1200.99 525.93 1197.72 514.93Z" fill="#575756" fill-opacity="1.000000" fill-rule="nonzero"/>
			<path id="Vector" d="M1187.84 108.43C1185.68 129.5 1177.56 143.63 1171.57 155.5C1169.75 159.15 1138.54 214.71 1137.13 274.37C1136.61 296.89 1139.77 319.83 1135.28 342.12C1131.24 362.43 1122.11 381.27 1117.77 401.51C1105.6 457.67 1119.26 520.76 1104.06 576.16L1109.53 576.16C1116.11 552.52 1117.76 527.12 1118.55 502.65C1119.76 464.49 1118.8 425.19 1130.28 388.39C1136.86 367.25 1145.04 347.38 1146.24 324.93C1147.99 291.88 1146.24 280.58 1147.14 257.22C1149.91 188.21 1193.67 173.39 1199.04 109.38C1200.39 92.38 1198.9 75.27 1194.63 58.79L1182.32 58.79C1183.04 61.15 1183.77 63.54 1184.39 66.1C1187.9 79.9 1189.06 94.22 1187.84 108.43Z" fill="#575756" fill-opacity="1.000000" fill-rule="nonzero"/>
			<path id="Vector" d="M1093.48 530.86C1094.56 515.84 1092.86 517.29 1093.36 497.19C1093.93 474.05 1096.47 461.8 1092.98 441.26C1090.63 427.45 1088.18 425.46 1086.4 424.85C1078.57 422.24 1064.19 446.81 1061.52 451.43C1042.57 483.81 1038.35 517.17 1036.31 528.56C1034.06 541.28 1033.17 554.05 1031.98 566.95C1031.69 570.01 1031.36 573.07 1030.9 576.13L1036.17 576.13C1038.52 565.92 1041.29 552.91 1044.67 536.43C1048.18 519.3 1053.24 496.45 1065.73 470.02C1076.02 448.16 1079.96 448.09 1081.09 448.34C1084.43 449.09 1085.49 457.64 1086.01 479.68C1086.94 519.15 1085.84 538.54 1084.13 550.51C1082.93 559.21 1080.96 567.79 1078.25 576.13L1084.47 576.13C1085.15 574.36 1085.79 572.53 1086.41 570.62C1090.43 557.73 1092.81 544.37 1093.48 530.86Z" fill="#575756" fill-opacity="1.000000" fill-rule="nonzero"/>
			<path id="Vector" d="M1130.86 158.44C1124.68 179.72 1117.17 200.76 1114.54 222.93C1111.91 246.18 1117.79 268.28 1118.9 291.35C1120.65 328.18 1101.79 360.08 1081.78 389.17C1060.88 419.68 1038.69 448.9 1027.67 484.93C1018.45 515.05 1013.36 552.33 991.82 576.16L997.86 576.16C1020.53 550.37 1026.21 509.8 1037.76 478.29C1050.82 442.58 1076.06 413.34 1096.59 382.03C1106.35 367.13 1115.21 351.52 1121 334.54C1127.48 315.54 1128.44 296.25 1126.01 276.39C1124.56 264.74 1122.49 253.13 1122.18 241.37C1122.04 229.52 1123.37 217.7 1126.14 206.19C1130.68 186.17 1134.78 173.48 1138.68 161.31C1144.96 141.71 1152.41 118.38 1153.93 93.4C1154.57 81.85 1154.13 70.25 1152.57 58.79L1137.64 58.79C1139.19 67.43 1140.19 76.16 1140.63 84.94C1141.8 110.06 1137.86 134.43 1130.86 158.44Z" fill="#575756" fill-opacity="1.000000" fill-rule="nonzero"/>
			<path id="Vector" d="M961.1 184.08C959.3 218.68 947.75 244.45 936.58 269.31C916.18 314.8 904.7 314.92 899.64 343.1C894.22 373.26 906.75 376.64 907.91 421.39C909.07 466.15 897.58 501.24 890.48 522.29C884.2 540.92 876.3 558.93 866.85 576.12L877.21 576.12C882.81 566.63 887.83 556.8 892.26 546.7C897.59 534.49 912 499.27 916.78 437.06C921.86 371.58 908.57 377.04 917.37 343.69C926.72 308.32 941.07 304.38 962.13 245.13C973.16 214.14 974.72 199.76 975.29 191.9C976.84 168.29 972.46 150.66 965.25 122.62C959.62 100.89 952.58 79.56 944.16 58.79L936.97 58.79C942.87 75.54 947.77 92.63 951.65 109.98C957.9 137.94 962.46 158.36 961.1 184.08Z" fill="#575756" fill-opacity="1.000000" fill-rule="nonzero"/>
			<path id="Vector" d="M938.5 156.21C940.63 171.87 940.4 187.77 936.34 203.1C932.77 216.52 926.95 229.24 920.41 241.45C907.44 265.7 891.64 288.72 883.03 315.14C875.28 338.94 875.29 360 874.87 394.17C874.58 416.52 875.92 432.02 876.29 438.28C878.01 466.99 871.94 510.85 837.04 576.13L845.55 576.13C860.12 551.69 871.07 525.19 878.07 497.49C900.97 405.2 861.47 365.27 895.72 305.87C910.12 281.69 923.3 256.78 935.21 231.22C941.21 218.7 945.35 205.32 947.47 191.55C949.74 175.37 948.16 158.83 945.09 142.87C941.79 125.72 936.92 108.91 932.47 92.06C928.97 78.84 927.2 67.62 925.69 58.81L911.34 58.81C914.91 68.98 920.98 83.07 926.07 102.22C930.87 120.02 935.99 137.94 938.5 156.21Z" fill="#575756" fill-opacity="1.000000" fill-rule="nonzero"/>
			<path id="Vector" d="M910.98 173.44C910.15 178.98 908.02 190.4 888.26 233.4C877.26 257.34 877.52 254.66 872.34 266.73C852.13 313.61 853.69 341.25 843.63 342.84C837.05 343.9 829.66 333.1 824.13 322.72L824.13 352.44C837.47 370 851.01 380.09 857.04 377.4C864.14 374.24 858.78 354.7 868.28 311.15C873.92 285.32 879.75 277.99 891.74 250.64C899.12 233.81 897.86 233.81 904.55 219.09C909.44 208.31 914.89 197.79 920.87 187.58C929.28 172.55 929.62 138.96 896.35 58.79L884.99 58.79C891.12 72.28 903.7 101.8 908.9 127.57C911.1 138.48 913.93 153.8 910.98 173.44Z" fill="#575756" fill-opacity="1.000000" fill-rule="nonzero"/>
			<path id="Vector" d="M882.87 172.57C881.75 177.12 880.28 181.57 878.48 185.89C877.34 188.65 876.04 191.33 874.61 193.94C871.41 199.67 867.72 205.09 863.56 210.13C849.83 226.73 844.66 260.9 838.2 260.31C836.88 260.19 834.01 258.44 830.72 235.06C828.39 218.28 827.34 201.34 827.59 184.39C827.55 176.28 826.41 168.21 824.19 160.43L824.19 277.66C827.75 289.26 833.71 305.83 839.8 305.41C848.81 304.82 845.24 268 867.33 221.83C878.78 197.9 891.47 193.51 895.19 171.39C897.01 160.53 897.46 149.06 892.9 127.12C887.88 103.55 880.3 80.63 870.29 58.79L857.49 58.79C864.69 74.55 875.2 99.95 881.35 126.9C881.35 126.9 887.41 153.6 882.87 172.57Z" fill="#575756" fill-opacity="1.000000" fill-rule="nonzero"/>
			<path id="Vector" d="M1073.99 494.3C1072.81 490.12 1071.79 488.1 1070.44 487.98C1063.86 487.39 1054.56 532.5 1046.93 576.13L1068 576.13C1075.5 552.17 1080.54 517.72 1073.99 494.3Z" fill="#575756" fill-opacity="1.000000" fill-rule="nonzero"/>
			<path id="Vector" d="M1292.66 78.67C1294.64 78.39 1296.77 74.31 1297.93 58.79L1284.11 58.79C1284.73 66.07 1284.78 68.98 1286.74 72.65C1287.41 73.83 1290.25 79.01 1292.66 78.67Z" fill="#575756" fill-opacity="1.000000" fill-rule="nonzero"/>
			<path id="Vector" d="M995.64 223.66C991.49 243.78 980.7 261.22 970.4 278.47C959.9 295.79 951.32 314.23 944.82 333.48C935.54 361.72 930.89 392.12 925.01 454.22C921.19 494.47 921.12 512.62 910.93 541.13C906.6 553.23 901.26 564.94 894.98 576.12L905.26 576.12C914.34 562.51 921.43 547.63 926.32 531.95C932.32 512.43 932.26 499.46 933.86 475.2C936.59 434.25 939 393.02 949.59 353.2C954.69 333.36 962.16 314.23 971.85 296.25C981.78 278.22 993.64 261.07 1000.68 241.54C1012.96 207.48 1004.47 171.86 993.61 138.71C987.4 119.74 980.26 101.03 975.18 81.7C973.2 74.17 971.67 66.51 970.6 58.79L963.31 58.79C965.73 80.47 973.05 102.04 979.66 122.11C990.31 154.4 1002.75 189.15 995.64 223.66Z" fill="#575756" fill-opacity="1.000000" fill-rule="nonzero"/>
			<path id="Vector" d="M1108.37 142.87C1103.1 162.87 1093.03 181.14 1088.15 201.31C1083.36 221.04 1082.21 241.39 1081.41 261.68C1079.96 298.44 1079.34 338.15 1058.55 369.94C1048.32 385.55 1032.38 396.05 1024.22 413.22C1016.16 430.15 1013.59 449.11 1008.09 466.89C1001.11 488.83 992.4 510.16 982.05 530.68C974.46 546.11 965.94 561.01 957.79 576.13L967.2 576.13C973.79 564.34 979.97 552.33 986 540.34C995.26 522.19 1003.43 503.47 1010.45 484.3C1017.03 465.97 1020.68 446.83 1026.93 428.44C1029.87 419.21 1034.56 410.67 1040.75 403.3C1047.23 395.85 1054.78 389.48 1060.9 381.68C1083.75 352.6 1088.19 314.15 1090.1 278.16C1091.19 257.28 1091.64 236.21 1095.15 215.54C1098.67 194.87 1107.34 175.75 1113.49 155.66C1123.06 124.42 1121.84 91.16 1116.61 58.79L1110.3 58.79C1114.16 86.84 1115.84 115.04 1108.37 142.87Z" fill="#575756" fill-opacity="1.000000" fill-rule="nonzero"/>
			<path id="Vector" d="M1003.06 129.26C1008.32 144.02 1015.48 164.14 1018.43 187.7C1022.19 217.9 1014.95 220.56 1009.44 278.53C1009.44 278.53 1007.29 300.81 997.42 314.75C992.15 322.28 987.03 325.78 981.62 329.51C981.62 329.51 978.12 332.08 971.09 337.93C957.64 349.07 954.12 374.91 952.22 388.91C951.22 396.1 950.63 403.34 950.44 410.59C950.19 422.67 948.48 479.52 936.29 523.68C931.18 541.99 923.94 559.61 914.72 576.16L918.93 576.16C927.96 562.12 935.18 546.95 940.41 531.03C951.9 495.78 957.72 443.35 957.52 400.32C957.52 400.32 957.35 355.51 974.7 341.65C983.61 334.53 984.52 333.84 984.52 333.84C990.02 330.03 995.72 326.1 1001.63 317.82C1011.69 303.6 1013.48 288.88 1014.64 278.66C1019.34 238.96 1023.85 221.21 1026.88 209.48C1029.79 198.14 1031.24 192.45 1029.57 178.62C1027.56 161.85 1023.46 153.21 1017.73 141.24C1009.6 124.57 1002.94 107.2 997.82 89.32C994.82 79.25 992.19 69.02 989.85 58.76L981.67 58.76C983.24 70.61 985.85 82.3 989.48 93.67C993.85 107.51 997.1 112.57 1003.06 129.26Z" fill="#575756" fill-opacity="1.000000" fill-rule="nonzero"/>
			<path id="Vector" d="M1080.51 140.71C1078.93 145.33 1077.23 149.41 1074.01 159.38C1066.04 184.29 1060.31 209.88 1056.89 235.85C1048.32 299.47 1060.01 309.12 1045.96 329.01C1044.64 330.81 1044.64 330.69 1018.49 364.76C1010.47 375.22 1006.44 380.43 1006.07 381.02C992.91 402.02 992.38 420.78 988.34 446.08C988.34 446.08 984.8 468.27 975 503.04C969.66 522.03 960.08 547.31 941.53 576.11L946.86 576.11C960.8 553.78 971.91 529.75 979.93 504.59C992.58 464.23 996.6 444.28 996.6 444.28C1002.43 415.5 1002.19 401.67 1013.54 384.92C1025.55 367.14 1034.85 358.18 1034.85 358.18C1039.28 353.9 1043.52 350.29 1048.77 343.42C1063.96 323.47 1063.77 305.85 1063.49 281.63C1063.24 261.34 1062.98 236.12 1071.39 199.95C1073.99 188.25 1077.51 176.79 1081.92 165.67C1086.32 155.11 1089.27 143.97 1090.63 132.58C1093.79 107.99 1092.82 83.04 1087.81 58.79L1082.39 58.79C1090.19 96.98 1086.5 123 1080.51 140.71Z" fill="#575756" fill-opacity="1.000000" fill-rule="nonzero"/>
			<path id="Vector" d="M1067.94 85.39C1066.81 97.06 1065.03 98.08 1053.31 137.71C1038.29 188.47 1034.88 208.36 1033.75 214.91C1030.8 232.75 1029.32 241.74 1029.07 252.77C1028.42 281.33 1032.25 298.38 1022.38 319.42C1021.23 321.75 1019.71 323.87 1017.88 325.68C1006.93 337.15 988.13 343.31 978.83 366.62C977.61 369.75 976.62 372.97 975.88 376.25C968.26 407.21 967.74 436.49 967.01 449.14C965.16 482.01 956.17 506.61 946.65 532.64C941.2 547.57 934.77 562.1 927.39 576.15L933.89 576.15C935.21 573.21 936.53 570.07 938.05 566.59C962.43 509.05 977.67 473.08 976.48 431.67C976.17 421.39 974.45 396.41 985.39 371.51C986.91 367.7 988.82 364.06 991.09 360.66C1003.79 342.09 1019.72 344.71 1028.61 328.74C1031.57 323.38 1032.49 318.29 1034.11 309.1C1035.34 301.57 1035.86 293.93 1035.68 286.29C1035.77 274.53 1036.49 262.78 1036.73 251.01C1035.81 255.04 1040.25 194.54 1066.09 123.39C1072.42 106.03 1075.06 83.75 1072.03 58.79L1067.66 58.79C1068.69 67.62 1068.8 76.54 1067.94 85.39Z" fill="#575756" fill-opacity="1.000000" fill-rule="nonzero"/>
			<path id="Vector" d="M1006.33 84.09C1008.96 92.6 1009.99 97.91 1013.67 107.09C1013.84 107.5 1015.07 110.76 1016.75 114.22C1025.51 132.09 1031.31 143.97 1036.77 143.74C1045.84 143.32 1052.56 109.18 1053.07 85.51C1053.25 76.56 1052.61 67.62 1051.17 58.79L1046.55 58.79C1048.05 67.56 1048.5 76.49 1047.87 85.38C1047.57 89.4 1045.84 118.01 1036.71 119.63C1030.49 120.73 1022.15 109.19 1018.67 100.95C1017.09 97.22 1017.87 97.36 1013.95 85.59C1011.82 79.21 1010.86 76.94 1009.63 72.02C1008.41 67.09 1008.31 64.97 1007.45 60.29L1007.21 58.79L998.11 58.79C998.78 61.58 999.43 64.15 1000.13 66.31C1002.51 74.19 1003.18 73.75 1006.33 84.09Z" fill="#575756" fill-opacity="1.000000" fill-rule="nonzero"/>
			<path id="Vector" d="M1033.8 102.16C1037.96 101.24 1037.11 81.88 1036.76 74.15C1036.56 69.9 1036.19 64.76 1035.44 58.79L1019.65 58.79C1022.07 74.4 1020.97 84.72 1027.88 96.14C1029.38 98.59 1031.8 102.6 1033.8 102.16Z" fill="#575756" fill-opacity="1.000000" fill-rule="nonzero"/>
			<path id="Vector" d="M849.9 411.63C847.87 408.15 844.39 403.15 837.44 393.13C832.72 386.31 828.23 380.06 824.14 374.35L824.14 389.43C825.34 391.33 826.53 393.24 827.73 395.31C837.77 412.65 850.58 434.73 851.66 464.88C851.66 466.15 852.56 496.18 841.47 519.09C838.71 524.81 835.01 530.48 830.39 542.14C828.62 547.1 826.53 551.93 824.14 556.61L824.14 574.87C841.06 550.61 852.43 522.79 857.43 493.47C860.69 473.46 866.22 439.63 849.9 411.63Z" fill="#575756" fill-opacity="1.000000" fill-rule="nonzero"/>
			<path id="Vector" d="M837.3 450.53C834.85 437.76 830.4 425.48 824.14 414.15L824.14 533.55C837.92 508.28 842.57 478.88 837.3 450.48L837.3 450.53Z" fill="#575756" fill-opacity="1.000000" fill-rule="nonzero"/>
			<path id="Vector" d="M841.57 196.53C843.31 202.55 844.14 204.75 845.72 205.02C852.43 206.12 868.45 172.32 866.48 137.94C865.16 115.22 855.79 88.88 845.77 88.39C841.76 88.2 837.45 92.14 835.44 95.65C831.86 101.92 833.9 109.34 834.61 112.21C841.36 139.2 830 156.33 841.57 196.53ZM843.22 116.61C841.9 112.85 841.59 108.79 842.34 104.87C842.52 103.97 843.78 98.16 845.88 97.93C850.29 97.46 859.79 121.76 859.17 147.03C858.68 167.08 851.88 186.18 848.25 185.94C845.44 185.71 843.42 173.87 843.22 172.69C842.77 170.1 842.58 167.48 842.64 164.86C842.9 155.39 844.06 151.33 844.69 144.38C845.36 136.93 846.27 126.98 843.22 116.61Z" fill="#575756" fill-opacity="1.000000" fill-rule="nonzero"/>
		</g>
	</mask>
	<g mask="url(#mask45383_4619)">
		<ellipse id="Ellipse 9" cx="1077.019897" cy="312.699341" rx="253.879044" ry="253.879028" fill="#C38C40" fill-opacity="1.000000"/>
	</g>
	<path id="Subtract" d="M1116.05 1.13094C1114.79 1.13094 1112.67 1.32236 1110.1 1.55446C1101.8 2.30391 1088.8 3.47749 1084.89 0C1077.16 7.73262 1066.18 6.929 1055.35 6.13533C1052.13 5.89935 1048.92 5.66425 1045.81 5.65468C1039.41 5.63501 1032.71 5.40089 1025.85 5.16083C994.903 4.07954 960.509 2.87762 934.977 20.6082C920.396 30.7337 903.645 35.9674 888.608 44.1694C885.921 45.6353 880.586 47.2278 878.493 49.3214C873.718 54.0964 869.25 61.069 866.178 66.9766C862.248 74.5343 853.654 79.059 847.204 84.2548C842.932 87.6962 834.407 92.0984 832.753 97.8889C831.352 102.79 829.224 106.548 826.47 110.832C822 117.784 816.718 124.465 811.484 131.084L811.202 131.44C801.395 143.843 793.988 155.691 782.552 167.127C779.125 170.554 773.881 171.873 773.881 177.557L773.881 189.997C773.881 202.588 780.667 214.054 780.667 226.816C780.667 227.793 780.727 228.862 780.79 229.971C780.98 233.346 781.191 237.091 779.787 239.759C777.324 244.438 767.862 247.464 763.451 248.68C758.378 250.08 759.952 265.342 757.922 270.922C754.271 280.962 750.131 288.221 750.131 299.196C750.131 300.642 750.073 302.137 750.013 303.647C749.885 306.883 749.755 310.192 750.194 313.27C750.804 317.538 753.896 321.815 754.718 326.338C756.133 334.119 764.261 339.958 766.844 347.449C769.591 355.416 769.33 364.15 769.068 372.902C768.825 381.022 768.582 389.156 770.74 396.708C773.725 407.156 778.182 417.093 782.929 426.866C786.52 434.261 786.434 442.376 786.348 450.406C786.335 451.63 786.321 452.853 786.321 454.071C786.321 463.523 792.481 464.42 797.756 471.161C804.113 479.284 809.774 488.878 814.029 498.241C820.737 512.997 835.198 525.352 850.534 530.661C864.48 535.489 869.677 546.183 879.31 556.672C886.699 564.718 891.158 575.228 898.787 582.433C900.638 584.181 904.244 583.936 907.237 583.733C908.332 583.659 909.344 583.59 910.159 583.626C915.037 583.843 920.175 584.387 924.924 585.574C928.218 586.397 931.127 589.264 933.343 591.48C937.665 595.802 941.75 598.517 947.417 601.093C951.205 602.815 956.265 601.837 960.423 603.292C963.856 604.494 969.905 606.182 973.429 606.182C975.987 606.182 979.407 608.521 981.408 610.078C985.474 613.24 991.823 614.764 996.613 616.361C1000.93 617.799 1008.43 618.622 1013.07 618.622C1018.63 618.622 1028.17 619.037 1032.61 622.267C1038.19 626.318 1054.91 632.254 1060.89 624.277C1062.88 621.616 1073.67 621.858 1079.08 621.979C1079.97 621.999 1080.71 622.015 1081.24 622.015C1087.82 622.015 1093.3 618.091 1099.59 617.492C1107.13 616.774 1114.46 616.361 1122.21 616.361C1124.05 616.361 1126.14 616.513 1128.32 616.671C1133.03 617.014 1138.13 617.386 1141.94 616.298C1145.17 615.376 1149.98 615.021 1153.25 613.533C1154.99 612.742 1156.88 612.902 1158.77 613.062C1160.35 613.197 1161.94 613.331 1163.43 612.905C1169.71 611.109 1174.41 606.016 1180.52 603.795C1184.28 602.426 1190.48 598.916 1196.09 595.739C1204.28 591.102 1211.21 587.177 1207.47 591.669C1203.47 596.47 1206.59 596.673 1211.47 596.99C1211.87 597.016 1212.27 597.042 1212.68 597.072C1216.39 597.336 1216.83 596.081 1217.5 594.182C1217.83 593.237 1218.22 592.133 1219.09 590.977C1222.95 585.885 1224.73 584.694 1231.91 584.694L1240.96 584.694C1250.1 584.694 1253.21 584.239 1260.81 578.16C1263.12 576.317 1263.22 574.58 1263.35 572.392C1263.39 571.651 1263.44 570.858 1263.58 569.992C1264.02 567.157 1270.67 562.177 1273.5 561.196C1276.84 560.042 1278.12 556.403 1279.16 553.279C1280.98 547.816 1284.93 543.302 1288.46 538.891C1294.31 531.578 1302.02 526.722 1305.99 517.466C1308.17 512.363 1312.45 508.558 1314.41 503.33C1315.64 500.037 1319.23 491.767 1321.82 489.696C1326.91 485.624 1330.62 479.211 1334.89 474.302C1340.05 468.365 1348.5 462.564 1352.36 455.705C1358.14 445.42 1365.8 438.04 1370.14 426.615C1371.63 422.677 1370.68 418.875 1372.65 415.054C1375.41 409.69 1378.64 404.069 1382.58 399.472C1386.85 394.491 1389.51 384.67 1391.12 378.236C1392.97 370.83 1394.45 361.578 1394.77 353.983C1395.54 335.511 1395.73 314.87 1390.49 297.185C1388.42 290.173 1386.09 282.62 1382.33 276.2C1381.27 274.392 1378.93 271.631 1378.93 269.603C1378.93 265.278 1377.85 261.069 1377.8 256.723C1377.8 256.291 1377.85 255.676 1377.92 254.973C1378.12 252.802 1378.4 249.791 1377.17 248.743C1371.7 244.053 1370.62 232.266 1369.38 225.748C1366.95 212.91 1364.56 200.743 1360.84 188.238C1358.19 179.35 1357.49 170.324 1352.42 162.352C1348.82 156.703 1345.36 150.802 1341.8 145.011C1340.04 142.148 1337.66 140.466 1335.96 137.911C1333.53 134.27 1329.31 132.044 1326.28 128.927C1325.08 127.695 1324.97 126.138 1323.52 125.283C1319.12 122.695 1311.84 115.895 1311.08 110.832C1310.2 104.967 1299.85 101.404 1296.63 96.1296C1294.77 93.0932 1287.98 90.5505 1287.33 87.0822C1286.79 84.2203 1275.96 78.0697 1273.5 75.5215C1269.6 71.4723 1264.92 68.8529 1260.69 64.966C1257.8 62.3128 1254.24 59.5291 1250.63 57.6778C1239.59 52.0117 1230.05 45.2281 1219.09 40.0226C1212.51 36.8943 1204.17 33.677 1197.35 31.7291C1195.02 31.0633 1192.83 29.6991 1190.51 29.3415C1174.22 26.8364 1160.75 16.5502 1146.27 10.1156C1136.73 5.87555 1126.57 1.13094 1116.05 1.13094ZM1072.53 28.3953C914.73 28.3953 786.812 156.314 786.812 314.11C786.812 471.906 914.73 599.824 1072.53 599.824C1230.32 599.824 1358.24 471.906 1358.24 314.11C1358.24 156.314 1230.32 28.3953 1072.53 28.3953Z" clip-rule="evenodd" fill="#727272" fill-opacity="1.000000" fill-rule="evenodd"/>
	<path id="P" d="M1459.2 150.39L1459.2 561.49L1589.44 561.49L1589.44 400.69L1664.39 400.69C1765.52 400.69 1833.92 325.02 1833.92 220.24C1833.92 115.47 1765.52 41.25 1664.39 41.25L1411.91 41.25L1411.91 150.39L1459.2 150.39ZM1638.19 291.55L1589.44 291.55L1589.44 150.39L1640.38 150.39C1680.39 150.39 1700.77 178.77 1700.77 220.24C1700.77 261.72 1680.39 291.55 1638.19 291.55Z" fill="#727272" fill-opacity="1.000000" fill-rule="evenodd"/>
</svg>
