<svg width="117.983643" height="56.000000" viewBox="0 0 117.984 56" fill="none" xmlns="http://www.w3.org/2000/svg" xmlns:xlink="http://www.w3.org/1999/xlink">
	<desc>
			Created with Pixso.
	</desc>
	<defs>
		<clipPath id="clip8_1074">
			<rect id="Asset 1 1" rx="0.000000" width="32.104252" height="31.484285" transform="translate(85.329987 12.161038) rotate(90.000000)" fill="white" fill-opacity="0"/>
		</clipPath>
	</defs>
	<path id="W" d="M3.16 18.54L9.5 43.83L19.04 43.83L23.24 28.32C23.84 26.18 23.89 24.78 23.89 24.78L23.98 24.78C23.98 24.78 24.03 26.18 24.63 28.32L28.82 43.83L38.37 43.83L44.71 18.54C44.89 17.75 45.26 17.52 46.01 17.52L47.17 17.52L47.17 10.53L41.21 10.53C38.88 10.53 37.49 11.18 37.07 13.23L33.39 30.65C32.97 32.7 32.97 34.14 32.97 34.14L32.88 34.14C32.88 34.14 32.83 32.7 32.32 30.65L27.29 10.58L20.63 10.58L15.55 30.65C15.04 32.7 14.99 34.14 14.99 34.14L14.9 34.14C14.9 34.14 14.9 32.7 14.48 30.65L10.8 13.23C10.38 11.18 8.94 10.53 6.66 10.53L0.69 10.53L0.69 17.52L1.86 17.52C2.6 17.52 2.98 17.75 3.16 18.54Z" fill="#2F2F2F" fill-opacity="1.000000" fill-rule="evenodd"/>
	<mask id="mask8_1074" mask-type="alpha" maskUnits="userSpaceOnUse" x="52.715149" y="11.784180" width="32.237976" height="32.857910">
		<rect id="Asset 1 1" rx="0.000000" width="32.104252" height="31.484285" transform="translate(85.329987 12.161038) rotate(90.000000)" fill="#FFFFFF" fill-opacity="0"/>
		<g clip-path="url(#clip8_1074)">
			<path id="Vector" d="M83.89 14.56C83.47 15.06 83.41 15.21 82.29 17.52C81.85 18.45 81.4 19.38 80.86 20.26C80.25 21.26 79.53 22.2 79.05 23.29C78.07 25.54 78.41 28.04 79.17 30.31C79.67 31.82 79.88 31.64 80.57 33.76C81.04 35.24 81.14 36.01 81.81 37.59C81.99 38 82.27 38.54 82.83 39.6C83.66 41.18 83.91 41.52 84.35 41.67C84.54 41.73 84.75 41.75 84.95 41.75L84.95 41.3C84.75 41.18 84.57 41.03 84.43 40.85C84.02 40.39 83.81 39.82 83.57 39.26L81.9 35.4C79.88 30.74 79.63 30.62 79.36 28.73C79.11 27.01 79.26 25.81 79.33 25.37C79.52 24.29 79.85 23.24 80.34 22.25C80.9 21.1 81.12 21.19 81.96 19.61C82.41 18.77 82.81 17.9 83.23 17.05C83.64 16.21 84.08 15.38 84.62 14.62C84.73 14.46 84.84 14.31 84.95 14.17L84.95 13.52C84.56 13.82 84.21 14.17 83.89 14.56Z" fill="#575756" fill-opacity="1.000000" fill-rule="nonzero"/>
			<path id="Vector" d="M84.12 17.45C83.86 18.14 83.42 19.31 82.88 20.29C82.29 21.35 82.12 21.23 81.59 22.15C80.87 23.41 80.65 24.56 80.52 25.25C80.24 26.8 80.29 28.39 80.64 29.92C80.91 31.16 81.37 32.35 81.98 33.46C82.32 34.07 82.83 34.72 83.85 36.03C84.17 36.45 84.54 36.84 84.95 37.17L84.95 36.05C84.72 35.87 84.5 35.67 84.29 35.47C83.19 34.38 82.66 33.28 82.21 32.31C81.73 31.31 81.31 30.41 81.1 29.1C80.77 27.06 81.18 25.37 81.36 24.62C81.51 24.04 81.69 23.46 81.92 22.9C82.53 21.45 82.95 21.26 83.79 19.62C83.98 19.23 84.26 18.56 84.82 17.22L84.95 16.9L84.95 15.73C84.87 15.85 84.8 15.97 84.73 16.1C84.49 16.53 84.28 16.98 84.12 17.45Z" fill="#575756" fill-opacity="1.000000" fill-rule="nonzero"/>
			<path id="Vector" d="M82.43 29.15C82.56 30.38 82.91 31.6 83.55 32.66C83.81 33.09 84.36 33.76 84.95 33.99L84.95 33.57C84.19 33.16 83.71 32.07 83.44 31.31C82.66 29.15 82.82 26.76 83.31 24.55C83.55 23.48 83.86 22.41 84.31 21.4C84.49 21.01 84.71 20.64 84.95 20.29L84.95 19.35C84.35 20.01 83.92 20.89 83.61 21.69C82.71 24 82.17 26.66 82.43 29.15Z" fill="#575756" fill-opacity="1.000000" fill-rule="nonzero"/>
			<path id="Vector" d="M84.29 24.87C84.04 25.57 83.94 26.31 83.99 27.06C84.04 27.92 84.24 28.77 84.45 29.6C84.54 29.96 84.68 30.36 84.95 30.61L84.95 29.92C84.84 29.59 84.8 29.21 84.75 28.97C84.61 28.26 84.48 27.55 84.47 26.82C84.46 26.2 84.57 25.58 84.79 25.01C84.84 24.89 84.89 24.78 84.95 24.67L84.95 23.73C84.65 24.05 84.44 24.5 84.29 24.87Z" fill="#575756" fill-opacity="1.000000" fill-rule="nonzero"/>
			<path id="Vector" d="M79.35 17.35C79.06 18.54 78.81 18.73 77.93 20.91C77.22 22.66 76.8 23.72 76.58 24.7C76.05 27.02 76.63 28.94 77.55 31.84C78.84 35.91 78.99 35.48 80.46 38.75C81.32 40.65 82.06 42.59 82.48 44.64L82.8 44.64C82.51 42.31 81.62 40.09 80.7 37.96C78.73 33.43 76.15 28.51 77.79 23.45C78.17 22.28 78.68 21.16 79.1 20C79.52 18.82 79.81 17.59 79.97 16.34C80.12 15.08 80.18 13.8 80.14 12.53L80.13 11.78L79.63 11.78C79.65 12.21 79.67 12.63 79.67 13.06C79.69 14.91 79.59 16.4 79.35 17.35Z" fill="#575756" fill-opacity="1.000000" fill-rule="nonzero"/>
			<path id="Vector" d="M77.2 17.47C76.84 18.72 76.28 19.85 75.67 20.98C75.05 22.14 74.54 23.31 74.39 24.63C74.11 27.11 74.75 29.7 75.54 32.03C77 36.33 79.38 40.28 80.7 44.64L81.01 44.64C80.43 42.31 79.53 40.1 78.57 37.89C77.58 35.63 76.58 33.35 75.86 30.98C75.5 29.8 75.24 28.6 75.08 27.38C74.91 26.02 74.89 24.63 75.29 23.32C75.68 22.07 76.4 20.95 76.91 19.75C77.4 18.59 77.76 17.37 77.98 16.12C78.2 14.9 78.27 13.65 78.21 12.41C78.2 12.2 78.17 11.99 78.15 11.78L77.68 11.78C77.73 12.24 77.76 12.7 77.77 13.16C77.79 14.62 77.6 16.07 77.2 17.47Z" fill="#575756" fill-opacity="1.000000" fill-rule="nonzero"/>
			<path id="Vector" d="M81 13.78C80.91 14.2 80.93 14.64 80.88 15.07C80.84 15.43 80.78 15.81 81.01 16.08C81.06 16.16 81.14 16.22 81.23 16.25C81.75 16.43 82.49 15.41 82.71 15.07C83.16 14.39 83.42 13.6 83.57 12.8C83.64 12.46 83.68 12.12 83.72 11.78L83.31 11.78C83.28 12 83.22 12.34 83.12 12.77C82.85 13.91 81.98 14.96 81.67 14.84C81.42 14.74 81.67 13.94 81.6 12.43C81.59 12.2 81.58 11.99 81.55 11.78L81.06 11.78C81.12 12.75 81.08 13.37 81 13.78Z" fill="#575756" fill-opacity="1.000000" fill-rule="nonzero"/>
			<path id="Vector" d="M77.93 40.31C77.37 38.3 76.7 36.3 75.72 34.45C75.5 34.02 75.32 33.72 74.96 33.13C74.25 31.98 73.88 31.4 73.57 31.43C73.09 31.47 72.83 32.67 72.71 33.23C72.33 34.95 72.58 36.01 72.6 37.7C72.6 38.7 72.5 39.52 72.3 41.15C72.15 42.29 72.22 43.48 72.16 44.63L72.74 44.63C72.99 42.71 73.21 40.27 73.21 40.24C73.23 36.87 73.25 33.53 73.99 33.38C74.43 33.29 74.98 34.37 75.69 35.75C75.97 36.28 76.53 37.19 77.66 41.21C77.92 42.14 78.16 43.06 78.4 43.99C78.46 44.21 78.51 44.42 78.56 44.63L79 44.63C78.94 44.32 78.86 44.01 78.79 43.72C78.52 42.58 78.24 41.44 77.93 40.31Z" fill="#575756" fill-opacity="1.000000" fill-rule="nonzero"/>
			<path id="Vector" d="M76.44 40.75C76.26 40.17 76.03 39.61 75.74 39.08C75.27 38.15 74.93 37.5 74.67 37.54C74.17 37.64 74.24 40.32 74.26 40.93C74.28 41.95 74.42 43.39 74.57 44.64L75.14 44.64C75.06 43.99 74.9 42.74 74.83 41.62C74.78 40.81 74.67 39.06 74.98 38.99C75.2 38.95 75.55 39.85 75.66 40.11C76.21 41.51 76.6 43.2 76.87 44.64L77.31 44.64C77.22 44.04 77.11 43.46 76.99 42.87C76.83 42.16 76.65 41.45 76.44 40.75Z" fill="#575756" fill-opacity="1.000000" fill-rule="nonzero"/>
			<path id="Vector" d="M75.81 14.93C75.67 16.27 75.16 17.17 74.78 17.92C74.66 18.15 72.68 21.68 72.59 25.47C72.56 26.9 72.76 28.36 72.47 29.77C72.22 31.06 71.64 32.26 71.36 33.55C70.59 37.11 71.45 41.12 70.49 44.64L70.84 44.64C71.25 43.14 71.36 41.52 71.41 39.97C71.49 37.55 71.43 35.05 72.15 32.71C72.57 31.37 73.09 30.11 73.17 28.68C73.28 26.58 73.17 25.87 73.23 24.38C73.4 20 76.18 19.06 76.52 14.99C76.61 13.91 76.51 12.83 76.24 11.78L75.46 11.78C75.51 11.93 75.55 12.08 75.59 12.24C75.81 13.12 75.89 14.03 75.81 14.93Z" fill="#575756" fill-opacity="1.000000" fill-rule="nonzero"/>
			<path id="Vector" d="M69.82 41.76C69.89 40.81 69.78 40.9 69.81 39.62C69.85 38.15 70.01 37.38 69.79 36.07C69.64 35.19 69.48 35.07 69.37 35.03C68.87 34.86 67.96 36.42 67.79 36.72C66.58 38.77 66.32 40.89 66.19 41.62C66.04 42.42 65.99 43.23 65.91 44.05C65.89 44.25 65.87 44.44 65.84 44.64L66.18 44.64C66.33 43.99 66.5 43.16 66.72 42.12C66.94 41.03 67.26 39.58 68.06 37.9C68.71 36.51 68.96 36.5 69.03 36.52C69.24 36.57 69.31 37.11 69.34 38.51C69.4 41.02 69.33 42.25 69.22 43.01C69.15 43.56 69.02 44.11 68.85 44.64L69.25 44.64C69.29 44.52 69.33 44.41 69.37 44.29C69.62 43.47 69.78 42.62 69.82 41.76Z" fill="#575756" fill-opacity="1.000000" fill-rule="nonzero"/>
			<path id="Vector" d="M72.19 18.11C71.8 19.46 71.32 20.8 71.16 22.2C70.99 23.68 71.36 25.08 71.43 26.55C71.54 28.89 70.35 30.92 69.07 32.76C67.75 34.7 66.34 36.56 65.64 38.84C65.05 40.76 64.73 43.13 63.36 44.64L63.74 44.64C65.18 43 65.54 40.42 66.28 38.42C67.11 36.15 68.71 34.3 70.01 32.31C70.64 31.36 71.2 30.37 71.57 29.29C71.98 28.09 72.04 26.86 71.88 25.6C71.79 24.86 71.66 24.12 71.64 23.38C71.63 22.62 71.72 21.87 71.89 21.14C72.18 19.87 72.44 19.06 72.69 18.29C73.09 17.05 73.56 15.56 73.66 13.98C73.7 13.24 73.67 12.51 73.57 11.78L72.62 11.78C72.72 12.33 72.78 12.88 72.81 13.44C72.89 15.04 72.64 16.58 72.19 18.11Z" fill="#575756" fill-opacity="1.000000" fill-rule="nonzero"/>
			<path id="Vector" d="M61.41 19.74C61.3 21.93 60.56 23.57 59.85 25.15C58.56 28.04 57.83 28.05 57.51 29.84C57.16 31.75 57.96 31.97 58.03 34.81C58.11 37.65 57.38 39.88 56.92 41.22C56.53 42.4 56.02 43.54 55.42 44.64L56.08 44.64C56.44 44.03 56.76 43.41 57.04 42.77C57.38 41.99 58.29 39.76 58.6 35.8C58.92 31.65 58.07 31.99 58.63 29.87C59.23 27.63 60.14 27.38 61.48 23.61C62.18 21.65 62.28 20.73 62.31 20.23C62.41 18.73 62.13 17.61 61.67 15.83C61.32 14.45 60.87 13.1 60.33 11.78L59.88 11.78C60.25 12.84 60.56 13.93 60.81 15.03C61.21 16.81 61.5 18.1 61.41 19.74Z" fill="#575756" fill-opacity="1.000000" fill-rule="nonzero"/>
			<path id="Vector" d="M59.97 17.97C60.11 18.96 60.1 19.97 59.84 20.94C59.61 21.8 59.24 22.6 58.83 23.38C58 24.92 57 26.38 56.45 28.06C55.96 29.57 55.96 30.91 55.93 33.08C55.91 34.5 56 35.48 56.02 35.88C56.13 37.71 55.75 40.49 53.53 44.64L54.07 44.64C55 43.08 55.69 41.4 56.14 39.64C57.59 33.78 55.08 31.24 57.26 27.47C58.17 25.94 59.01 24.35 59.77 22.73C60.15 21.93 60.41 21.09 60.54 20.21C60.69 19.18 60.59 18.13 60.39 17.12C60.18 16.03 59.87 14.96 59.59 13.89C59.37 13.05 59.26 12.34 59.16 11.78L58.25 11.78C58.48 12.43 58.86 13.32 59.19 14.54C59.49 15.67 59.82 16.81 59.97 17.97Z" fill="#575756" fill-opacity="1.000000" fill-rule="nonzero"/>
			<path id="Vector" d="M58.23 19.06C58.17 19.41 58.04 20.14 56.78 22.87C56.09 24.39 56.1 24.22 55.77 24.99C54.49 27.96 54.59 29.72 53.95 29.82C53.53 29.89 53.06 29.2 52.71 28.54L52.71 30.43C53.56 31.54 54.42 32.19 54.8 32.02C55.25 31.81 54.91 30.57 55.51 27.81C55.87 26.17 56.24 25.7 57 23.96C57.47 22.9 57.39 22.9 57.82 21.96C58.13 21.28 58.47 20.61 58.85 19.96C59.39 19 59.41 16.87 57.3 11.78L56.58 11.78C56.97 12.64 57.76 14.51 58.09 16.15C58.23 16.84 58.41 17.81 58.23 19.06Z" fill="#575756" fill-opacity="1.000000" fill-rule="nonzero"/>
			<path id="Vector" d="M56.44 19.01C56.37 19.29 56.28 19.58 56.16 19.85C56.09 20.03 56.01 20.2 55.92 20.36C55.71 20.73 55.48 21.07 55.22 21.39C54.34 22.45 54.01 24.62 53.6 24.58C53.52 24.57 53.34 24.46 53.13 22.97C52.98 21.91 52.91 20.83 52.93 19.76C52.93 19.24 52.86 18.73 52.71 18.23L52.71 25.68C52.94 26.42 53.32 27.47 53.71 27.44C54.28 27.41 54.05 25.07 55.45 22.13C56.18 20.61 56.99 20.34 57.22 18.93C57.34 18.24 57.37 17.51 57.08 16.12C56.76 14.62 56.28 13.17 55.64 11.78L54.83 11.78C55.29 12.78 55.95 14.39 56.34 16.11C56.34 16.11 56.73 17.8 56.44 19.01Z" fill="#575756" fill-opacity="1.000000" fill-rule="nonzero"/>
			<path id="Vector" d="M68.58 39.44C68.5 39.17 68.44 39.05 68.35 39.04C67.94 39 67.35 41.87 66.86 44.64L68.2 44.64C68.68 43.12 69 40.93 68.58 39.44Z" fill="#575756" fill-opacity="1.000000" fill-rule="nonzero"/>
			<path id="Vector" d="M82.47 13.04C82.59 13.02 82.73 12.77 82.8 11.78L81.92 11.78C81.96 12.24 81.97 12.43 82.09 12.66C82.13 12.73 82.32 13.06 82.47 13.04Z" fill="#575756" fill-opacity="1.000000" fill-rule="nonzero"/>
			<path id="Vector" d="M63.6 22.25C63.34 23.53 62.65 24.64 62 25.73C61.33 26.83 60.79 28 60.38 29.23C59.79 31.02 59.49 32.95 59.12 36.89C58.88 39.45 58.87 40.6 58.22 42.41C57.95 43.18 57.61 43.93 57.21 44.64L57.86 44.64C58.44 43.77 58.89 42.83 59.2 41.83C59.58 40.59 59.58 39.77 59.68 38.23C59.85 35.63 60.01 33.01 60.68 30.48C61 29.22 61.48 28 62.09 26.86C62.72 25.72 63.48 24.63 63.92 23.39C64.7 21.22 64.16 18.96 63.47 16.85C63.08 15.65 62.63 14.46 62.3 13.23C62.18 12.76 62.08 12.27 62.01 11.78L61.55 11.78C61.7 13.16 62.17 14.53 62.59 15.8C63.26 17.85 64.05 20.06 63.6 22.25Z" fill="#575756" fill-opacity="1.000000" fill-rule="nonzero"/>
			<path id="Vector" d="M70.76 17.12C70.43 18.39 69.79 19.55 69.48 20.83C69.17 22.08 69.1 23.38 69.05 24.67C68.96 27 68.92 29.52 67.6 31.54C66.95 32.53 65.94 33.2 65.42 34.29C64.91 35.37 64.74 36.57 64.39 37.7C63.95 39.09 63.4 40.45 62.74 41.75C62.26 42.73 61.72 43.68 61.2 44.64L61.8 44.64C62.22 43.89 62.61 43.13 62.99 42.36C63.58 41.21 64.1 40.02 64.54 38.8C64.96 37.64 65.19 36.42 65.59 35.26C65.78 34.67 66.08 34.13 66.47 33.66C66.88 33.19 67.36 32.78 67.75 32.29C69.2 30.44 69.48 28 69.6 25.71C69.67 24.39 69.7 23.05 69.92 21.73C70.15 20.42 70.7 19.21 71.09 17.93C71.7 15.95 71.62 13.84 71.29 11.78L70.89 11.78C71.13 13.56 71.24 15.35 70.76 17.12Z" fill="#575756" fill-opacity="1.000000" fill-rule="nonzero"/>
			<path id="Vector" d="M64.07 16.25C64.41 17.19 64.86 18.47 65.05 19.97C65.29 21.88 64.83 22.05 64.48 25.74C64.48 25.74 64.34 27.15 63.72 28.04C63.38 28.51 63.06 28.74 62.71 28.97C62.71 28.97 62.49 29.14 62.04 29.51C61.19 30.22 60.97 31.86 60.85 32.75C60.78 33.2 60.74 33.66 60.73 34.12C60.72 34.89 60.61 38.5 59.83 41.31C59.51 42.47 59.05 43.59 58.46 44.64L58.73 44.64C59.3 43.75 59.76 42.78 60.1 41.77C60.83 39.53 61.2 36.2 61.18 33.47C61.18 33.47 61.17 30.62 62.27 29.74C62.84 29.29 62.9 29.25 62.9 29.25C63.25 29.01 63.61 28.76 63.98 28.23C64.62 27.33 64.74 26.39 64.81 25.74C65.11 23.22 65.4 22.1 65.59 21.35C65.77 20.63 65.86 20.27 65.76 19.39C65.63 18.32 65.37 17.78 65.01 17.02C64.49 15.96 64.07 14.85 63.74 13.72C63.55 13.08 63.38 12.43 63.24 11.78L62.72 11.78C62.82 12.53 62.98 13.27 63.21 13.99C63.49 14.87 63.7 15.19 64.07 16.25Z" fill="#575756" fill-opacity="1.000000" fill-rule="nonzero"/>
			<path id="Vector" d="M68.99 16.98C68.89 17.28 68.79 17.54 68.58 18.17C68.07 19.75 67.71 21.38 67.49 23.02C66.95 27.07 67.69 27.68 66.8 28.94C66.72 29.06 66.72 29.05 65.05 31.21C64.55 31.88 64.29 32.21 64.27 32.25C63.43 33.58 63.4 34.77 63.14 36.38C63.14 36.38 62.92 37.79 62.29 40C61.95 41.2 61.35 42.81 60.17 44.64L60.51 44.64C61.39 43.22 62.1 41.69 62.61 40.09C63.41 37.53 63.67 36.26 63.67 36.26C64.03 34.43 64.02 33.56 64.74 32.49C65.5 31.36 66.09 30.79 66.09 30.79C66.38 30.52 66.64 30.29 66.98 29.86C67.94 28.59 67.93 27.47 67.91 25.93C67.9 24.64 67.88 23.04 68.41 20.75C68.58 20 68.8 19.27 69.08 18.57C69.36 17.9 69.55 17.19 69.64 16.47C69.84 14.9 69.78 13.32 69.46 11.78L69.11 11.78C69.61 14.21 69.37 15.86 68.99 16.98Z" fill="#575756" fill-opacity="1.000000" fill-rule="nonzero"/>
			<path id="Vector" d="M68.2 13.47C68.12 14.21 68.01 14.27 67.27 16.79C66.31 20.02 66.1 21.28 66.02 21.69C65.84 22.83 65.74 23.4 65.73 24.1C65.69 25.91 65.93 27 65.3 28.33C65.23 28.48 65.13 28.62 65.02 28.73C64.32 29.46 63.13 29.85 62.54 31.33C62.46 31.53 62.4 31.73 62.35 31.94C61.86 33.91 61.83 35.77 61.79 36.57C61.67 38.66 61.1 40.22 60.49 41.87C60.15 42.82 59.74 43.75 59.27 44.64L59.68 44.64C59.77 44.45 59.85 44.25 59.95 44.03C61.49 40.38 62.46 38.09 62.39 35.46C62.37 34.81 62.26 33.22 62.95 31.64C63.05 31.4 63.17 31.17 63.31 30.95C64.12 29.77 65.13 29.94 65.7 28.92C65.89 28.58 65.94 28.26 66.05 27.68C66.12 27.2 66.16 26.71 66.15 26.23C66.15 25.48 66.2 24.74 66.21 23.99C66.16 24.24 66.44 20.4 68.08 15.88C68.48 14.78 68.65 13.37 68.46 11.78L68.18 11.78C68.24 12.34 68.25 12.91 68.2 13.47Z" fill="#575756" fill-opacity="1.000000" fill-rule="nonzero"/>
			<path id="Vector" d="M64.28 13.39C64.45 13.93 64.51 14.26 64.75 14.85C64.76 14.87 64.84 15.08 64.94 15.3C65.5 16.43 65.87 17.19 66.22 17.17C66.79 17.15 67.22 14.98 67.25 13.48C67.26 12.91 67.22 12.34 67.13 11.78L66.84 11.78C66.93 12.34 66.96 12.9 66.92 13.47C66.9 13.72 66.79 15.54 66.21 15.64C65.82 15.71 65.29 14.98 65.07 14.46C64.97 14.22 65.02 14.23 64.77 13.48C64.63 13.08 64.57 12.93 64.49 12.62C64.41 12.31 64.41 12.17 64.35 11.87L64.34 11.78L63.76 11.78C63.8 11.96 63.84 12.12 63.89 12.26C64.04 12.76 64.08 12.73 64.28 13.39Z" fill="#575756" fill-opacity="1.000000" fill-rule="nonzero"/>
			<path id="Vector" d="M66.03 14.53C66.29 14.48 66.24 13.25 66.22 12.75C66.2 12.48 66.18 12.16 66.13 11.78L65.13 11.78C65.28 12.77 65.21 13.43 65.65 14.15C65.75 14.31 65.9 14.56 66.03 14.53Z" fill="#575756" fill-opacity="1.000000" fill-rule="nonzero"/>
			<path id="Vector" d="M54.35 34.19C54.22 33.97 54 33.65 53.56 33.01C53.26 32.58 52.97 32.18 52.71 31.82L52.71 32.78C52.79 32.9 52.86 33.02 52.94 33.15C53.58 34.25 54.39 35.66 54.46 37.57C54.46 37.65 54.52 39.56 53.81 41.01C53.64 41.38 53.4 41.74 53.11 42.48C53 42.79 52.86 43.1 52.71 43.4L52.71 44.56C53.79 43.02 54.51 41.25 54.83 39.39C55.03 38.12 55.38 35.97 54.35 34.19Z" fill="#575756" fill-opacity="1.000000" fill-rule="nonzero"/>
			<path id="Vector" d="M53.55 36.66C53.39 35.85 53.11 35.07 52.71 34.35L52.71 41.93C53.59 40.33 53.88 38.46 53.55 36.66L53.55 36.66Z" fill="#575756" fill-opacity="1.000000" fill-rule="nonzero"/>
			<path id="Vector" d="M53.82 20.53C53.93 20.91 53.98 21.05 54.08 21.07C54.51 21.14 55.53 18.99 55.4 16.81C55.32 15.36 54.72 13.69 54.09 13.66C53.83 13.65 53.56 13.9 53.43 14.12C53.2 14.52 53.33 14.99 53.38 15.17C53.81 16.89 53.08 17.97 53.82 20.53ZM53.92 15.45C53.84 15.21 53.82 14.96 53.87 14.71C53.88 14.65 53.96 14.28 54.09 14.27C54.37 14.24 54.98 15.78 54.94 17.38C54.91 18.66 54.47 19.87 54.24 19.85C54.06 19.84 53.94 19.09 53.92 19.01C53.89 18.85 53.88 18.68 53.89 18.52C53.9 17.91 53.98 17.66 54.02 17.22C54.06 16.74 54.12 16.11 53.92 15.45Z" fill="#575756" fill-opacity="1.000000" fill-rule="nonzero"/>
		</g>
	</mask>
	<g mask="url(#mask8_1074)">
		<circle id="Ellipse 9" cx="68.777039" cy="27.910156" r="16.124563" fill="#C38C40" fill-opacity="1.000000"/>
	</g>
	<path id="Subtract" d="M81.2222 8.15234C81.1078 8.15234 80.9155 8.16992 80.6823 8.19092C79.929 8.25879 78.7496 8.36523 78.3947 8.0498C77.6931 8.75146 76.6976 8.67871 75.7144 8.60645C75.4221 8.58496 75.1309 8.56396 74.8488 8.56299C74.2686 8.56104 73.6608 8.54004 73.0375 8.51807C70.23 8.41992 67.1093 8.31104 64.7927 9.91943C63.4698 10.8384 61.95 11.313 60.5856 12.0576C60.3418 12.1904 59.8578 12.335 59.6678 12.5249C59.2346 12.958 58.8292 13.5908 58.5505 14.127C58.1939 14.8125 57.4141 15.2231 56.8289 15.6943C56.4412 16.0068 55.6678 16.4062 55.5177 16.9316C55.3906 17.3765 55.1975 17.7173 54.9476 18.106C54.5421 18.7368 54.0628 19.3428 53.5879 19.9434L53.5624 19.9756C52.6725 21.1011 52.0005 22.1758 50.9628 23.2139C50.652 23.5244 50.1761 23.6445 50.1761 24.1602L50.1761 25.2886C50.1761 26.4312 50.7918 27.4717 50.7918 28.6294C50.7918 28.7183 50.7973 28.8149 50.803 28.9155C50.8203 29.2217 50.8394 29.5615 50.712 29.8037C50.4885 30.2285 49.6299 30.5029 49.2298 30.6133C48.7695 30.7402 48.9122 32.125 48.7281 32.6313C48.3969 33.542 48.0212 34.2007 48.0212 35.1968C48.0212 35.3276 48.0159 35.4634 48.0105 35.6006C47.9989 35.894 47.9871 36.1943 48.027 36.4736C48.0823 36.8608 48.3628 37.249 48.4374 37.6592C48.5657 38.3652 49.3033 38.895 49.5377 39.5747C49.7869 40.2974 49.7632 41.0898 49.7394 41.8843C49.7174 42.6211 49.6953 43.3589 49.8911 44.0439C50.162 44.9922 50.5663 45.8936 50.997 46.7803C51.3229 47.4512 51.3151 48.1875 51.3073 48.916C51.306 49.0273 51.3049 49.1382 51.3049 49.249C51.3049 50.1064 51.8638 50.188 52.3424 50.7993C52.9192 51.5366 53.4327 52.4067 53.8189 53.2563C54.4274 54.5952 55.7395 55.7163 57.131 56.1982C58.3964 56.6362 58.8679 57.6064 59.7419 58.5581C60.4124 59.2881 60.817 60.2417 61.5092 60.8955C61.6771 61.0542 62.0043 61.0317 62.2759 61.0132L62.276 61.0132C62.3752 61.0068 62.467 61.0005 62.541 61.0039C62.9835 61.0234 63.4497 61.0728 63.8806 61.1807C64.1794 61.2554 64.4434 61.5151 64.6445 61.7163C65.0367 62.1084 65.4072 62.355 65.9215 62.5884C66.2652 62.7446 66.7243 62.6558 67.1016 62.7881C67.413 62.897 67.9619 63.0503 68.2816 63.0503C68.5137 63.0503 68.824 63.2627 69.0056 63.4038C69.3745 63.6904 69.9505 63.8291 70.3851 63.9736C70.7767 64.1045 71.457 64.1792 71.8787 64.1792C72.3826 64.1792 73.2487 64.2168 73.6517 64.5098C74.1571 64.8774 75.6741 65.416 76.217 64.6919C76.3981 64.4507 77.3771 64.4727 77.8677 64.4834C77.9482 64.4854 78.0155 64.4868 78.064 64.4868C78.6605 64.4868 79.1575 64.1309 79.7286 64.0762C80.4123 64.0112 81.0777 63.9736 81.7809 63.9736C81.948 63.9736 82.1377 63.9878 82.335 64.002C82.7625 64.0332 83.2254 64.0669 83.5709 63.9683C83.8637 63.8843 84.3001 63.8521 84.597 63.7173C84.755 63.6455 84.9267 63.6602 85.0982 63.6743C85.2419 63.6865 85.3854 63.6987 85.5205 63.6602C86.0908 63.4976 86.517 63.0352 87.0711 62.8335C87.4126 62.7095 87.9752 62.3911 88.4842 62.1025C89.2274 61.6821 89.8564 61.3257 89.5167 61.7334C89.1537 62.1689 89.4366 62.1875 89.8799 62.2163C89.9156 62.2188 89.9524 62.2212 89.9899 62.2236C90.3258 62.2476 90.3659 62.1338 90.4265 61.9614C90.4567 61.8755 90.4919 61.7754 90.5714 61.6709C90.9214 61.2085 91.0829 61.1006 91.7343 61.1006L92.5552 61.1006C93.3843 61.1006 93.6672 61.0591 94.3566 60.5078C94.5656 60.3403 94.575 60.1831 94.5868 59.9844C94.5908 59.917 94.595 59.8452 94.6075 59.7666C94.6481 59.5093 95.251 59.0576 95.5082 58.9688C95.8106 58.8638 95.9268 58.5337 96.0212 58.2505C96.1865 57.7544 96.5448 57.3447 96.8649 56.9448C97.3958 56.2812 98.0956 55.8408 98.4554 55.001C98.6539 54.5376 99.0414 54.1924 99.2194 53.7183C99.3314 53.4194 99.6571 52.6689 99.892 52.481C100.354 52.1118 100.69 51.5298 101.078 51.0845C101.546 50.5459 102.312 50.0195 102.663 49.397C103.188 48.4639 103.883 47.7944 104.276 46.7578C104.411 46.4004 104.325 46.0552 104.504 45.7085C104.755 45.2222 105.047 44.7119 105.405 44.2949C105.792 43.8428 106.034 42.9517 106.18 42.3682C106.348 41.6963 106.482 40.8569 106.511 40.1675C106.58 38.4917 106.598 36.6187 106.123 35.0142C105.934 34.3779 105.723 33.6924 105.382 33.1104C105.286 32.9463 105.074 32.6958 105.074 32.5117C105.074 32.1191 104.976 31.7373 104.971 31.3428C104.971 31.3037 104.976 31.248 104.982 31.1841L104.982 31.1841C105 30.9873 105.025 30.7139 104.914 30.6191C104.418 30.1934 104.319 29.124 104.207 28.5322C103.987 27.3677 103.77 26.2637 103.432 25.1289C103.192 24.3228 103.129 23.5039 102.668 22.7803C102.342 22.2681 102.028 21.7324 101.705 21.207C101.545 20.9473 101.329 20.7944 101.175 20.563C100.954 20.2324 100.572 20.0303 100.297 19.7476C100.188 19.6357 100.178 19.4946 100.046 19.417C99.6468 19.1821 98.9861 18.5654 98.9172 18.106C98.8374 17.5737 97.8985 17.2505 97.606 16.772C97.4377 16.4966 96.8214 16.2656 96.7623 15.9512C96.7136 15.6914 95.7311 15.1333 95.5082 14.9019C95.1539 14.5347 94.729 14.2969 94.3452 13.9443C94.0833 13.7036 93.7607 13.4512 93.4331 13.2832C92.4306 12.769 91.5657 12.1533 90.5714 11.6812C89.9738 11.3975 89.2175 11.1055 88.5989 10.9287C88.3875 10.8682 88.1884 10.7446 87.9775 10.7119C86.5001 10.4849 85.2778 9.55127 83.9642 8.96777C83.0986 8.58301 82.1765 8.15234 81.2222 8.15234ZM77.2731 10.626C62.9559 10.626 51.3495 22.2324 51.3495 36.5498C51.3495 50.8672 62.9559 62.4736 77.2731 62.4736C91.5903 62.4736 103.197 50.8672 103.197 36.5498C103.197 22.2324 91.5903 10.626 77.2731 10.626Z" clip-rule="evenodd" fill="#3F2C30" fill-opacity="1.000000" fill-rule="evenodd"/>
	<path id="P" d="M93.08 17.52L93.08 43.83L101.41 43.83L101.41 33.54L106.21 33.54C112.69 33.54 117.06 28.69 117.06 21.99C117.06 15.28 112.69 10.53 106.21 10.53L90.05 10.53L90.05 17.52L93.08 17.52ZM104.53 26.55L101.41 26.55L101.41 17.52L104.67 17.52C107.24 17.52 108.54 19.33 108.54 21.99C108.54 24.64 107.24 26.55 104.53 26.55Z" fill="#2F2F2F" fill-opacity="1.000000" fill-rule="evenodd"/>
</svg>
