<svg width="80.187988" height="72.040833" viewBox="0 0 80.188 72.0408" fill="none" xmlns="http://www.w3.org/2000/svg" xmlns:xlink="http://www.w3.org/1999/xlink">
	<desc>
			Created with Pixso.
	</desc>
	<defs>
		<filter id="filter_3_2593_dd" x="30.131104" y="41.114655" width="50.056885" height="30.926178" filterUnits="userSpaceOnUse" color-interpolation-filters="sRGB">
			<feFlood flood-opacity="0" result="BackgroundImageFix"/>
			<feBlend mode="normal" in="SourceGraphic" in2="BackgroundImageFix" result="shape"/>
			<feGaussianBlur stdDeviation="1.33333" result="effect_layerBlur_1"/>
		</filter>
		<clipPath id="clip3_2626">
			<rect id="Asset 1 1" rx="0.000000" width="22.913631" height="22.471146" transform="translate(45.272148 22.043388) rotate(90.000000)" fill="white" fill-opacity="0"/>
		</clipPath>
	</defs>
	<g opacity="0.250000" filter="url(#filter_3_2593_dd)">
		<path id="Rectangle 77" d="M34.16 57.91C33.52 52.32 42.4 46.72 54 45.39C65.59 44.07 75.51 47.53 76.15 53.12C76.79 58.71 67.91 64.32 56.31 65.64L35.31 68.04L34.16 57.91Z" fill="#3F2C30" fill-opacity="1.000000" fill-rule="nonzero"/>
	</g>
	<path id="Rectangle 76" d="M16.97 50.91C7.59 41.53 7.59 26.34 16.97 16.97C26.34 7.59 41.53 7.59 50.91 16.97C60.28 26.34 60.28 41.53 50.91 50.91L33.94 67.88L16.97 50.91Z" fill="#3F2C30" fill-opacity="1.000000" fill-rule="evenodd"/>
	<circle id="Ellipse 16" cx="33.500000" cy="33.500000" r="16.500000" fill="#FFFFFF" fill-opacity="1.000000"/>
	<mask id="mask3_2626" mask-type="alpha" maskUnits="userSpaceOnUse" x="21.994141" y="21.774414" width="23.009033" height="23.451569">
		<rect id="Asset 1 1" rx="0.000000" width="22.913631" height="22.471146" transform="translate(45.272148 22.043388) rotate(90.000000)" fill="#FFFFFF" fill-opacity="0"/>
		<g clip-path="url(#clip3_2626)">
			<path id="Vector" d="M44.24 23.75C43.94 24.11 43.9 24.22 43.1 25.87C42.78 26.53 42.47 27.2 42.08 27.82C41.65 28.54 41.13 29.21 40.79 29.98C40.09 31.59 40.33 33.37 40.87 34.99C41.23 36.07 41.38 35.94 41.87 37.46C42.21 38.52 42.28 39.07 42.76 40.19C42.88 40.49 43.08 40.87 43.48 41.63C44.08 42.75 44.26 42.99 44.57 43.1C44.71 43.14 44.85 43.16 45 43.16L45 42.84C44.86 42.75 44.73 42.65 44.63 42.52C44.34 42.19 44.19 41.78 44.01 41.39L42.82 38.63C41.38 35.3 41.21 35.22 41.01 33.86C40.83 32.64 40.94 31.78 40.99 31.47C41.12 30.7 41.36 29.95 41.71 29.25C42.11 28.42 42.27 28.49 42.87 27.36C43.19 26.76 43.47 26.14 43.77 25.53C44.07 24.93 44.38 24.34 44.76 23.8C44.84 23.68 44.92 23.58 45 23.48L45 23.01C44.72 23.23 44.47 23.48 44.24 23.75Z" fill="#575756" fill-opacity="1.000000" fill-rule="nonzero"/>
			<path id="Vector" d="M44.41 25.82C44.22 26.31 43.9 27.14 43.52 27.84C43.1 28.6 42.98 28.51 42.6 29.17C42.09 30.07 41.93 30.89 41.84 31.39C41.64 32.49 41.67 33.62 41.93 34.72C42.12 35.6 42.44 36.45 42.88 37.24C43.12 37.68 43.49 38.15 44.21 39.08C44.44 39.38 44.71 39.65 45 39.89L45 39.1C44.84 38.96 44.68 38.82 44.53 38.68C43.75 37.9 43.36 37.11 43.04 36.43C42.7 35.71 42.4 35.07 42.25 34.13C42.02 32.68 42.31 31.47 42.44 30.94C42.54 30.52 42.68 30.11 42.84 29.71C43.27 28.67 43.57 28.54 44.17 27.36C44.31 27.09 44.51 26.61 44.9 25.65L45 25.42L45 24.59C44.94 24.67 44.89 24.76 44.84 24.85C44.67 25.16 44.52 25.48 44.41 25.82Z" fill="#575756" fill-opacity="1.000000" fill-rule="nonzero"/>
			<path id="Vector" d="M43.2 34.17C43.3 35.04 43.54 35.91 44 36.67C44.19 36.98 44.58 37.46 45 37.62L45 37.33C44.46 37.03 44.11 36.25 43.92 35.71C43.37 34.17 43.48 32.46 43.83 30.89C44 30.12 44.22 29.35 44.55 28.64C44.67 28.36 44.83 28.09 45 27.84L45 27.17C44.57 27.65 44.26 28.27 44.04 28.84C43.4 30.49 43.01 32.39 43.2 34.17Z" fill="#575756" fill-opacity="1.000000" fill-rule="nonzero"/>
			<path id="Vector" d="M44.53 31.11C44.35 31.61 44.28 32.14 44.32 32.67C44.35 33.29 44.49 33.9 44.64 34.49C44.71 34.75 44.81 35.03 45 35.21L45 34.72C44.92 34.48 44.89 34.21 44.86 34.04C44.75 33.53 44.66 33.03 44.66 32.51C44.65 32.06 44.73 31.62 44.89 31.21C44.92 31.13 44.96 31.05 45 30.97L45 30.3C44.78 30.53 44.63 30.85 44.53 31.11Z" fill="#575756" fill-opacity="1.000000" fill-rule="nonzero"/>
			<path id="Vector" d="M41 25.75C40.79 26.59 40.61 26.73 39.99 28.29C39.49 29.54 39.18 30.29 39.02 30.99C38.65 32.65 39.06 34.02 39.72 36.09C40.64 38.99 40.75 38.68 41.8 41.02C42.41 42.37 42.94 43.76 43.24 45.22L43.47 45.22C43.26 43.56 42.62 41.98 41.96 40.45C40.56 37.22 38.72 33.71 39.89 30.1C40.16 29.26 40.52 28.46 40.82 27.64C41.13 26.79 41.33 25.92 41.44 25.02C41.55 24.12 41.59 23.21 41.57 22.31L41.56 21.77L41.2 21.77C41.22 22.07 41.23 22.38 41.23 22.68C41.25 24.01 41.17 25.07 41 25.75Z" fill="#575756" fill-opacity="1.000000" fill-rule="nonzero"/>
			<path id="Vector" d="M39.47 25.83C39.21 26.72 38.81 27.53 38.38 28.34C37.93 29.16 37.57 30 37.46 30.94C37.26 32.71 37.72 34.56 38.28 36.22C39.33 39.29 41.02 42.11 41.96 45.22L42.19 45.22C41.78 43.56 41.13 41.98 40.45 40.41C39.74 38.79 39.03 37.17 38.52 35.47C38.26 34.63 38.07 33.77 37.95 32.9C37.83 31.94 37.82 30.94 38.11 30.01C38.38 29.11 38.9 28.32 39.26 27.46C39.61 26.63 39.87 25.76 40.02 24.87C40.18 24 40.23 23.11 40.19 22.22C40.18 22.07 40.16 21.92 40.15 21.77L39.81 21.77C39.84 22.1 39.87 22.43 39.87 22.76C39.89 23.8 39.76 24.83 39.47 25.83Z" fill="#575756" fill-opacity="1.000000" fill-rule="nonzero"/>
			<path id="Vector" d="M42.18 23.19C42.12 23.5 42.13 23.81 42.1 24.12C42.07 24.37 42.03 24.65 42.19 24.84C42.23 24.9 42.28 24.94 42.34 24.96C42.71 25.09 43.25 24.36 43.4 24.12C43.72 23.64 43.9 23.07 44.02 22.5C44.06 22.26 44.09 22.01 44.12 21.77L43.83 21.77C43.81 21.93 43.76 22.17 43.69 22.47C43.5 23.29 42.88 24.04 42.66 23.95C42.48 23.88 42.66 23.31 42.61 22.23C42.6 22.07 42.59 21.92 42.58 21.77L42.23 21.77C42.27 22.47 42.23 22.91 42.18 23.19Z" fill="#575756" fill-opacity="1.000000" fill-rule="nonzero"/>
			<path id="Vector" d="M39.99 42.13C39.59 40.7 39.11 39.27 38.42 37.95C38.25 37.64 38.13 37.43 37.87 37.01C37.36 36.19 37.1 35.78 36.88 35.79C36.53 35.83 36.35 36.68 36.26 37.08C36 38.31 36.17 39.07 36.18 40.27C36.19 40.98 36.11 41.57 35.97 42.73C35.86 43.55 35.91 44.39 35.87 45.22L36.28 45.22C36.46 43.84 36.62 42.1 36.62 42.08C36.63 39.68 36.65 37.29 37.17 37.19C37.49 37.12 37.89 37.89 38.39 38.87C38.59 39.26 38.99 39.9 39.8 42.78C39.98 43.44 40.16 44.1 40.33 44.76C40.37 44.92 40.4 45.07 40.44 45.22L40.75 45.22C40.71 44.99 40.65 44.77 40.6 44.57C40.41 43.75 40.21 42.94 39.99 42.13Z" fill="#575756" fill-opacity="1.000000" fill-rule="nonzero"/>
			<path id="Vector" d="M38.92 42.45C38.8 42.03 38.63 41.63 38.43 41.25C38.09 40.59 37.85 40.12 37.67 40.16C37.31 40.22 37.36 42.14 37.37 42.58C37.39 43.3 37.48 44.33 37.59 45.22L38 45.22C37.94 44.76 37.82 43.87 37.78 43.07C37.74 42.49 37.67 41.24 37.88 41.19C38.04 41.16 38.29 41.8 38.37 41.99C38.76 42.99 39.04 44.2 39.23 45.22L39.55 45.22C39.48 44.8 39.41 44.38 39.32 43.96C39.2 43.45 39.07 42.94 38.92 42.45Z" fill="#575756" fill-opacity="1.000000" fill-rule="nonzero"/>
			<path id="Vector" d="M38.48 24.02C38.38 24.98 38.01 25.62 37.74 26.15C37.66 26.32 36.24 28.84 36.18 31.54C36.15 32.56 36.3 33.6 36.09 34.61C35.91 35.53 35.5 36.39 35.3 37.31C34.75 39.85 35.37 42.71 34.68 45.22L34.93 45.22C35.22 44.15 35.3 43 35.34 41.89C35.39 40.16 35.35 38.38 35.87 36.71C36.17 35.75 36.54 34.85 36.59 33.83C36.67 32.34 36.59 31.82 36.63 30.76C36.76 27.64 38.74 26.96 38.98 24.06C39.05 23.29 38.98 22.52 38.78 21.77L38.23 21.77C38.26 21.88 38.29 21.98 38.32 22.1C38.48 22.73 38.53 23.38 38.48 24.02Z" fill="#575756" fill-opacity="1.000000" fill-rule="nonzero"/>
			<path id="Vector" d="M34.2 43.17C34.25 42.49 34.17 42.55 34.19 41.64C34.22 40.59 34.33 40.04 34.18 39.11C34.07 38.48 33.96 38.39 33.88 38.36C33.52 38.24 32.87 39.36 32.75 39.57C31.89 41.04 31.7 42.55 31.61 43.06C31.51 43.64 31.47 44.22 31.41 44.8C31.4 44.94 31.38 45.08 31.36 45.22L31.6 45.22C31.71 44.76 31.83 44.17 31.99 43.42C32.15 42.64 32.37 41.61 32.94 40.41C33.41 39.42 33.59 39.42 33.64 39.43C33.79 39.46 33.84 39.85 33.86 40.85C33.9 42.64 33.85 43.52 33.78 44.06C33.72 44.45 33.63 44.84 33.51 45.22L33.79 45.22C33.82 45.14 33.85 45.06 33.88 44.97C34.06 44.39 34.17 43.78 34.2 43.17Z" fill="#575756" fill-opacity="1.000000" fill-rule="nonzero"/>
			<path id="Vector" d="M35.89 26.29C35.61 27.25 35.27 28.2 35.15 29.21C35.03 30.26 35.3 31.27 35.35 32.31C35.43 33.98 34.58 35.43 33.67 36.75C32.72 38.13 31.72 39.45 31.22 41.09C30.8 42.45 30.57 44.14 29.59 45.22L29.86 45.22C30.89 44.05 31.15 42.21 31.67 40.79C32.27 39.17 33.41 37.84 34.34 36.42C34.78 35.75 35.18 35.04 35.45 34.27C35.74 33.41 35.78 32.53 35.67 31.63C35.61 31.11 35.51 30.58 35.5 30.05C35.49 29.51 35.55 28.97 35.68 28.45C35.89 27.54 36.07 26.97 36.25 26.42C36.53 25.53 36.87 24.47 36.94 23.34C36.97 22.81 36.95 22.29 36.88 21.77L36.2 21.77C36.27 22.16 36.32 22.56 36.34 22.95C36.39 24.09 36.21 25.2 35.89 26.29Z" fill="#575756" fill-opacity="1.000000" fill-rule="nonzero"/>
			<path id="Vector" d="M28.2 27.45C28.12 29.02 27.59 30.19 27.09 31.31C26.16 33.37 25.64 33.38 25.41 34.66C25.17 36.02 25.73 36.18 25.79 38.21C25.84 40.24 25.32 41.83 25 42.78C24.71 43.62 24.35 44.44 23.93 45.22L24.4 45.22C24.65 44.79 24.88 44.34 25.08 43.89C25.32 43.33 25.97 41.74 26.19 38.92C26.42 35.95 25.82 36.2 26.22 34.68C26.64 33.08 27.29 32.9 28.24 30.22C28.74 28.81 28.82 28.16 28.84 27.8C28.91 26.73 28.71 25.93 28.39 24.66C28.13 23.68 27.81 22.71 27.43 21.77L27.1 21.77C27.37 22.53 27.59 23.3 27.77 24.09C28.05 25.36 28.26 26.28 28.2 27.45Z" fill="#575756" fill-opacity="1.000000" fill-rule="nonzero"/>
			<path id="Vector" d="M27.17 26.19C27.27 26.9 27.26 27.62 27.08 28.31C26.91 28.92 26.65 29.5 26.35 30.05C25.77 31.15 25.05 32.19 24.66 33.39C24.31 34.47 24.31 35.42 24.29 36.97C24.28 37.99 24.34 38.69 24.35 38.97C24.43 40.27 24.16 42.26 22.57 45.22L22.96 45.22C23.62 44.11 24.12 42.91 24.43 41.66C25.47 37.47 23.68 35.66 25.23 32.97C25.89 31.87 26.48 30.74 27.02 29.59C27.3 29.02 27.48 28.41 27.58 27.79C27.68 27.05 27.61 26.3 27.47 25.58C27.32 24.8 27.1 24.04 26.9 23.28C26.74 22.68 26.66 22.17 26.59 21.77L25.94 21.77C26.1 22.23 26.38 22.87 26.61 23.74C26.83 24.54 27.06 25.36 27.17 26.19Z" fill="#575756" fill-opacity="1.000000" fill-rule="nonzero"/>
			<path id="Vector" d="M25.93 26.97C25.89 27.22 25.79 27.74 24.9 29.68C24.4 30.77 24.41 30.65 24.17 31.2C23.26 33.32 23.33 34.57 22.87 34.65C22.58 34.69 22.24 34.2 21.99 33.73L21.99 35.08C22.59 35.88 23.21 36.33 23.48 36.21C23.8 36.07 23.56 35.18 23.99 33.21C24.25 32.04 24.51 31.71 25.05 30.47C25.39 29.7 25.33 29.7 25.63 29.04C25.86 28.55 26.1 28.07 26.37 27.61C26.76 26.93 26.77 25.4 25.26 21.77L24.75 21.77C25.03 22.38 25.6 23.72 25.83 24.89C25.93 25.38 26.06 26.08 25.93 26.97Z" fill="#575756" fill-opacity="1.000000" fill-rule="nonzero"/>
			<path id="Vector" d="M24.65 26.93C24.6 27.13 24.53 27.34 24.45 27.53C24.4 27.66 24.34 27.78 24.28 27.9C24.13 28.16 23.97 28.4 23.78 28.63C23.15 29.38 22.92 30.93 22.63 30.9C22.57 30.9 22.44 30.82 22.29 29.76C22.18 29 22.14 28.23 22.15 27.46C22.14 27.1 22.09 26.73 21.99 26.38L21.99 31.69C22.15 32.22 22.42 32.97 22.7 32.95C23.11 32.92 22.95 31.25 23.95 29.16C24.47 28.08 25.04 27.88 25.21 26.87C25.29 26.38 25.31 25.86 25.11 24.87C24.88 23.8 24.54 22.76 24.08 21.77L23.5 21.77C23.83 22.48 24.3 23.64 24.58 24.86C24.58 24.86 24.86 26.07 24.65 26.93Z" fill="#575756" fill-opacity="1.000000" fill-rule="nonzero"/>
			<path id="Vector" d="M33.32 41.51C33.26 41.32 33.22 41.23 33.15 41.22C32.86 41.2 32.43 43.24 32.09 45.22L33.04 45.22C33.38 44.13 33.61 42.57 33.32 41.51Z" fill="#575756" fill-opacity="1.000000" fill-rule="nonzero"/>
			<path id="Vector" d="M43.23 22.67C43.32 22.66 43.41 22.47 43.47 21.77L42.84 21.77C42.87 22.1 42.87 22.23 42.96 22.4C42.99 22.45 43.12 22.69 43.23 22.67Z" fill="#575756" fill-opacity="1.000000" fill-rule="nonzero"/>
			<path id="Vector" d="M29.76 29.24C29.58 30.16 29.09 30.95 28.62 31.73C28.14 32.51 27.76 33.35 27.46 34.22C27.04 35.5 26.83 36.88 26.56 39.69C26.39 41.52 26.39 42.34 25.92 43.63C25.73 44.18 25.49 44.71 25.2 45.22L25.67 45.22C26.08 44.6 26.4 43.93 26.62 43.22C26.89 42.33 26.89 41.75 26.96 40.65C27.09 38.79 27.2 36.92 27.68 35.12C27.91 34.22 28.25 33.35 28.69 32.53C29.14 31.72 29.67 30.94 29.99 30.05C30.55 28.51 30.16 26.89 29.67 25.39C29.39 24.53 29.07 23.68 28.84 22.81C28.75 22.47 28.68 22.12 28.63 21.77L28.3 21.77C28.41 22.75 28.74 23.73 29.04 24.64C29.52 26.1 30.09 27.68 29.76 29.24Z" fill="#575756" fill-opacity="1.000000" fill-rule="nonzero"/>
			<path id="Vector" d="M34.87 25.58C34.64 26.49 34.18 27.32 33.96 28.23C33.74 29.12 33.69 30.05 33.65 30.97C33.59 32.63 33.56 34.43 32.62 35.87C32.15 36.58 31.43 37.06 31.06 37.84C30.69 38.6 30.58 39.46 30.33 40.27C30.01 41.26 29.62 42.23 29.15 43.16C28.8 43.86 28.42 44.54 28.05 45.22L28.48 45.22C28.77 44.69 29.05 44.14 29.33 43.6C29.75 42.78 30.12 41.93 30.43 41.06C30.73 40.23 30.9 39.36 31.18 38.53C31.32 38.11 31.53 37.72 31.81 37.39C32.1 37.05 32.44 36.76 32.72 36.41C33.76 35.09 33.96 33.34 34.05 31.71C34.1 30.77 34.12 29.81 34.27 28.88C34.43 27.94 34.83 27.07 35.11 26.16C35.54 24.74 35.48 23.24 35.25 21.77L34.96 21.77C35.14 23.04 35.21 24.32 34.87 25.58Z" fill="#575756" fill-opacity="1.000000" fill-rule="nonzero"/>
			<path id="Vector" d="M30.1 24.96C30.34 25.63 30.66 26.55 30.8 27.61C30.97 28.98 30.64 29.1 30.39 31.73C30.39 31.73 30.29 32.74 29.84 33.37C29.61 33.71 29.37 33.87 29.13 34.04C29.13 34.04 28.97 34.16 28.65 34.42C28.04 34.93 27.88 36.1 27.8 36.73C27.75 37.06 27.72 37.39 27.72 37.72C27.7 38.26 27.63 40.84 27.07 42.84C26.84 43.67 26.51 44.47 26.1 45.22L26.29 45.22C26.7 44.59 27.02 43.9 27.26 43.18C27.78 41.58 28.04 39.2 28.04 37.25C28.04 37.25 28.03 35.22 28.81 34.59C29.22 34.27 29.26 34.24 29.26 34.24C29.51 34.07 29.77 33.89 30.04 33.51C30.49 32.87 30.57 32.2 30.62 31.74C30.84 29.94 31.04 29.13 31.18 28.6C31.31 28.09 31.38 27.83 31.3 27.2C31.21 26.44 31.02 26.05 30.77 25.51C30.4 24.75 30.09 23.96 29.86 23.15C29.73 22.7 29.61 22.23 29.5 21.77L29.13 21.77C29.2 22.31 29.32 22.84 29.48 23.35C29.68 23.98 29.83 24.21 30.1 24.96Z" fill="#575756" fill-opacity="1.000000" fill-rule="nonzero"/>
			<path id="Vector" d="M33.61 25.48C33.54 25.69 33.46 25.88 33.32 26.33C32.96 27.46 32.7 28.62 32.54 29.8C32.15 32.68 32.68 33.12 32.04 34.02C31.99 34.1 31.99 34.09 30.8 35.64C30.44 36.11 30.25 36.35 30.24 36.38C29.64 37.33 29.62 38.18 29.43 39.33C29.43 39.33 29.27 40.33 28.83 41.91C28.59 42.77 28.15 43.91 27.31 45.22L27.55 45.22C28.18 44.21 28.69 43.12 29.05 41.98C29.63 40.15 29.81 39.24 29.81 39.24C30.07 37.94 30.06 37.31 30.58 36.55C31.12 35.75 31.54 35.34 31.54 35.34C31.74 35.15 31.93 34.98 32.17 34.67C32.86 33.77 32.85 32.97 32.84 31.87C32.83 30.95 32.82 29.81 33.2 28.17C33.32 27.64 33.48 27.12 33.67 26.61C33.87 26.14 34.01 25.63 34.07 25.11C34.21 24 34.17 22.87 33.94 21.77L33.7 21.77C34.05 23.5 33.88 24.68 33.61 25.48Z" fill="#575756" fill-opacity="1.000000" fill-rule="nonzero"/>
			<path id="Vector" d="M33.04 22.98C32.99 23.5 32.91 23.55 32.38 25.35C31.7 27.65 31.54 28.55 31.49 28.85C31.36 29.66 31.29 30.06 31.28 30.56C31.25 31.86 31.42 32.63 30.98 33.58C30.92 33.69 30.86 33.79 30.77 33.87C30.28 34.39 29.42 34.67 29 35.72C28.95 35.87 28.9 36.01 28.87 36.16C28.52 37.56 28.5 38.89 28.47 39.46C28.38 40.95 27.97 42.07 27.54 43.25C27.3 43.93 27 44.59 26.67 45.22L26.97 45.22C27.02 45.09 27.08 44.95 27.15 44.79C28.26 42.18 28.95 40.55 28.9 38.67C28.88 38.21 28.8 37.07 29.3 35.95C29.37 35.77 29.45 35.61 29.56 35.45C30.13 34.61 30.86 34.73 31.26 34.01C31.39 33.76 31.43 33.53 31.51 33.12C31.56 32.77 31.59 32.43 31.58 32.08C31.58 31.55 31.62 31.02 31.63 30.48C31.59 30.67 31.79 27.92 32.96 24.7C33.24 23.91 33.36 22.9 33.23 21.77L33.03 21.77C33.08 22.17 33.08 22.57 33.04 22.98Z" fill="#575756" fill-opacity="1.000000" fill-rule="nonzero"/>
			<path id="Vector" d="M30.25 22.92C30.37 23.3 30.41 23.54 30.58 23.96C30.59 23.98 30.64 24.13 30.72 24.28C31.12 25.09 31.38 25.63 31.63 25.62C32.04 25.6 32.34 24.05 32.37 22.98C32.38 22.58 32.35 22.17 32.28 21.77L32.07 21.77C32.14 22.17 32.16 22.57 32.13 22.97C32.12 23.16 32.04 24.45 31.63 24.53C31.34 24.58 30.97 24.05 30.81 23.68C30.74 23.51 30.77 23.52 30.59 22.98C30.5 22.7 30.45 22.59 30.4 22.37C30.34 22.15 30.34 22.05 30.3 21.84L30.29 21.77L29.88 21.77C29.91 21.9 29.94 22.01 29.97 22.11C30.08 22.47 30.11 22.45 30.25 22.92Z" fill="#575756" fill-opacity="1.000000" fill-rule="nonzero"/>
			<path id="Vector" d="M31.49 23.74C31.68 23.69 31.64 22.82 31.63 22.47C31.62 22.27 31.6 22.04 31.57 21.77L30.85 21.77C30.96 22.48 30.91 22.95 31.23 23.46C31.29 23.57 31.4 23.76 31.49 23.74Z" fill="#575756" fill-opacity="1.000000" fill-rule="nonzero"/>
			<path id="Vector" d="M23.16 37.76C23.07 37.61 22.91 37.38 22.59 36.93C22.38 36.62 22.18 36.33 21.99 36.07L21.99 36.76C22.04 36.84 22.1 36.93 22.15 37.02C22.61 37.81 23.19 38.81 23.24 40.18C23.24 40.24 23.28 41.6 22.78 42.64C22.65 42.89 22.48 43.15 22.27 43.68C22.19 43.91 22.1 44.12 21.99 44.34L21.99 45.16C22.76 44.06 23.27 42.8 23.5 41.47C23.65 40.57 23.9 39.03 23.16 37.76Z" fill="#575756" fill-opacity="1.000000" fill-rule="nonzero"/>
			<path id="Vector" d="M22.59 39.53C22.48 38.95 22.27 38.39 21.99 37.88L21.99 43.29C22.61 42.15 22.83 40.81 22.59 39.53L22.59 39.53Z" fill="#575756" fill-opacity="1.000000" fill-rule="nonzero"/>
			<path id="Vector" d="M22.78 28.01C22.86 28.29 22.9 28.39 22.97 28.4C23.27 28.45 24 26.92 23.91 25.36C23.85 24.33 23.42 23.13 22.97 23.11C22.79 23.1 22.59 23.28 22.5 23.44C22.34 23.72 22.43 24.06 22.46 24.19C22.77 25.41 22.26 26.19 22.78 28.01ZM22.85 24.39C22.79 24.22 22.78 24.04 22.81 23.86C22.82 23.82 22.88 23.55 22.98 23.54C23.17 23.52 23.61 24.62 23.58 25.77C23.56 26.68 23.25 27.54 23.08 27.53C22.96 27.52 22.86 26.99 22.85 26.93C22.83 26.82 22.83 26.7 22.83 26.58C22.84 26.15 22.89 25.96 22.92 25.65C22.95 25.31 22.99 24.86 22.85 24.39Z" fill="#575756" fill-opacity="1.000000" fill-rule="nonzero"/>
		</g>
	</mask>
	<g mask="url(#mask3_2626)">
		<circle id="Ellipse 9" cx="33.457764" cy="33.283905" r="11.508515" fill="#C38C40" fill-opacity="1.000000"/>
	</g>
	<path id="Ellipse 10 (Stroke)" d="M47.85 33.5C47.85 41.42 41.42 47.85 33.5 47.85C25.57 47.85 19.14 41.42 19.14 33.5C19.14 25.57 25.57 19.14 33.5 19.14C41.42 19.14 47.85 25.57 47.85 33.5ZM33.5 46.37C40.61 46.37 46.37 40.61 46.37 33.5C46.37 26.38 40.61 20.62 33.5 20.62C26.38 20.62 20.62 26.38 20.62 33.5C20.62 40.61 26.38 46.37 33.5 46.37Z" fill="#3F2C30" fill-opacity="1.000000" fill-rule="evenodd"/>
</svg>
