<svg width="24.000000" height="24.000000" viewBox="0 0 24 24" fill="none" xmlns="http://www.w3.org/2000/svg" xmlns:xlink="http://www.w3.org/1999/xlink">
	<desc>
			Created with Pixso.
	</desc>
	<defs>
		<clipPath id="clip9_3643">
			<rect id="fi:search" rx="0.000000" width="23.000000" height="23.000000" transform="translate(0.500000 0.500000)" fill="white" fill-opacity="0"/>
		</clipPath>
	</defs>
	<rect id="fi:search" rx="0.000000" width="23.000000" height="23.000000" transform="translate(0.500000 0.500000)" fill="#FFFFFF" fill-opacity="0"/>
	<g clip-path="url(#clip9_3643)">
		<path id="Vector" d="M11 19C6.58 19 3 15.41 3 11C3 6.58 6.58 3 11 3C15.41 3 19 6.58 19 11C19 15.41 15.41 19 11 19Z" stroke="#2F2F2F" stroke-opacity="1.000000" stroke-width="2.000000" stroke-linejoin="round"/>
		<path id="Vector" d="M21.67 20.29L21.7 20.29C22.1 20.68 22.1 21.31 21.7 21.7C21.31 22.1 20.68 22.1 20.29 21.7L20.29 21.67L21.67 20.29ZM15.97 17.35L15.94 17.35C15.54 16.96 15.54 16.33 15.94 15.94C16.33 15.54 16.96 15.54 17.35 15.94L17.35 15.97L15.97 17.35Z" fill="#2F2F2F" fill-opacity="1.000000" fill-rule="nonzero"/>
		<path id="Vector" d="M21 21L16.64 16.64" stroke="#2F2F2F" stroke-opacity="1.000000" stroke-width="2.000000" stroke-linejoin="round" stroke-linecap="round"/>
	</g>
</svg>
