<svg width="24.000000" height="24.000000" viewBox="0 0 24 24" fill="none" xmlns="http://www.w3.org/2000/svg" xmlns:xlink="http://www.w3.org/1999/xlink">
	<desc>
			Created with Pixso.
	</desc>
	<defs>
		<clipPath id="clip9_3657">
			<rect id="fi:shopping-cart" rx="0.000000" width="23.000000" height="23.000000" transform="translate(0.500000 0.500000)" fill="white" fill-opacity="0"/>
		</clipPath>
	</defs>
	<rect id="fi:shopping-cart" rx="0.000000" width="23.000000" height="23.000000" transform="translate(0.500000 0.500000)" fill="#FFFFFF" fill-opacity="0"/>
	<g clip-path="url(#clip9_3657)">
		<path id="Vector" d="M21 21C21 21.55 20.55 22 20 22C19.44 22 19 21.55 19 21C19 20.44 19.44 20 20 20C20.55 20 21 20.44 21 21Z" fill="#2F2F2F" fill-opacity="1.000000" fill-rule="evenodd"/>
		<path id="Vector" d="M20 22C19.44 22 19 21.55 19 21C19 20.44 19.44 20 20 20C20.55 20 21 20.44 21 21C21 21.55 20.55 22 20 22Z" stroke="#2F2F2F" stroke-opacity="1.000000" stroke-width="1.000000" stroke-linejoin="round"/>
		<path id="Vector" d="M10 21C10 21.55 9.55 22 9 22C8.44 22 8 21.55 8 21C8 20.44 8.44 20 9 20C9.55 20 10 20.44 10 21Z" fill="#2F2F2F" fill-opacity="1.000000" fill-rule="evenodd"/>
		<path id="Vector" d="M9 22C8.44 22 8 21.55 8 21C8 20.44 8.44 20 9 20C9.55 20 10 20.44 10 21C10 21.55 9.55 22 9 22Z" stroke="#2F2F2F" stroke-opacity="1.000000" stroke-width="1.000000" stroke-linejoin="round"/>
		<path id="Vector" d="M1 1L5 1L7.67 14.39C7.77 14.85 8.02 15.26 8.38 15.55C8.75 15.85 9.21 16 9.67 16L19.39 16C19.86 16 20.32 15.85 20.69 15.55C21.05 15.26 21.3 14.85 21.39 14.39L23 6L6 6" stroke="#2F2F2F" stroke-opacity="1.000000" stroke-width="2.000000" stroke-linejoin="round" stroke-linecap="round"/>
	</g>
</svg>
